<svg width="89" height="87" viewBox="0 0 89 87" fill="none" xmlns="http://www.w3.org/2000/svg">
<path fill-rule="evenodd" clip-rule="evenodd" d="M14.976 65.775C11.3914 65.775 8.55664 68.5486 8.55664 71.9852C8.55664 75.4185 11.3914 78.2684 14.976 78.2684H83.5234V65.775H14.976Z" fill="white"/>
<path fill-rule="evenodd" clip-rule="evenodd" d="M79.2879 65.775V71.4708C79.2879 72.9343 78.0974 74.1017 76.611 74.1017H9.20801C10.1025 76.5866 12.4835 78.2684 15.2327 78.2684H83.5236V65.775H79.2879Z" fill="#156738"/>
<path fill-rule="evenodd" clip-rule="evenodd" d="M15.2919 57.2247C7.48483 57.4503 1.31543 63.838 1.31543 71.6557C1.31543 79.5443 7.48483 85.9321 15.2919 86.1577H86.1874C87.6015 86.1577 88.7854 84.9567 88.7854 83.4512V80.7493C88.7854 79.3194 87.6015 78.1184 86.1874 78.1184L15.2919 78.1934C11.7995 78.1934 8.97129 75.3376 8.89894 71.8806C8.89894 68.1954 11.7994 65.2679 15.4366 65.2679H86.1874C87.6015 65.2679 88.7854 64.063 88.7854 62.637V59.9312C88.7854 58.4263 87.6015 57.2247 86.1874 57.2247H15.2919Z" fill="#2EC56E"/>
<path fill-rule="evenodd" clip-rule="evenodd" d="M84.1875 57.2253V65.7717H86.3514C87.7063 65.7717 88.7915 64.4918 88.7915 62.8962V60.1009C88.7915 58.5013 87.7063 57.2253 86.3514 57.2253H84.1875Z" fill="#156738"/>
<path fill-rule="evenodd" clip-rule="evenodd" d="M84.1875 78.2716V86.1577H86.3514C87.7063 86.084 88.7915 84.979 88.7915 83.5031V80.8525C88.7915 79.4503 87.7063 78.2716 86.3514 78.2716H84.1875Z" fill="#156738"/>
<path fill-rule="evenodd" clip-rule="evenodd" d="M17.7456 71.6945C16.325 71.6945 15.1279 72.8843 15.1279 74.3753V81.5214C15.1279 83.023 16.3513 84.1878 17.7588 84.1878C18.1008 84.1878 18.4494 84.1208 18.7914 83.9787L21.4881 82.8599L23.8822 83.9043C24.2374 84.0497 24.5991 84.1208 24.9477 84.1208C26.3749 84.1208 27.618 82.998 27.618 81.4471V74.3753C27.618 72.8843 26.4275 71.6945 25.0003 71.6945H17.7456Z" fill="#F9A419"/>
<path fill-rule="evenodd" clip-rule="evenodd" d="M14.976 7.89651C11.3914 7.89651 8.55664 10.8194 8.55664 14.4329C8.55664 18.0471 11.3914 21.0469 14.976 21.0469H83.5234V7.89651H14.976Z" fill="white"/>
<path fill-rule="evenodd" clip-rule="evenodd" d="M79.2879 7.89651V13.8956C79.2879 15.432 78.0974 16.6646 76.611 16.6646H9.20801C10.1025 19.2764 12.4835 21.0469 15.2327 21.0469H83.5236V7.89651H79.2879Z" fill="#156738"/>
<path fill-rule="evenodd" clip-rule="evenodd" d="M14.404 0.00320435C6.50485 0.00320435 0 6.45409 0 14.4342C0 22.457 6.58374 28.9362 14.5356 28.9362C14.6276 28.9362 14.7197 28.9362 14.8118 28.9362H86.1677C87.5949 28.9362 88.7854 27.732 88.7854 26.231V23.5252C88.7854 22.096 87.5949 20.895 86.1677 20.895H14.8118V20.9699C11.293 20.895 8.45167 18.1148 8.37933 14.6592C8.37933 10.9786 11.293 8.04777 14.9631 8.04777H86.1677C87.5949 8.04777 88.7854 6.84346 88.7854 5.34255V2.71236C88.7854 1.21145 87.5949 0.00713845 86.1677 0.00713845H14.8118C14.6737 0.00319214 14.5422 0.00320435 14.404 0.00320435Z" fill="#2EC56E"/>
<path fill-rule="evenodd" clip-rule="evenodd" d="M84.1875 -6.10352e-05V7.89256H86.3514C87.7063 7.89256 88.7915 6.71065 88.7915 5.23736V2.65514C88.7915 1.18185 87.7063 -6.10352e-05 86.3514 -6.10352e-05H84.1875Z" fill="#156738"/>
<path fill-rule="evenodd" clip-rule="evenodd" d="M84.1875 21.0502V28.9396H86.3514C87.7063 28.9396 88.7915 27.7583 88.7915 26.2857V23.6311C88.7915 22.2289 87.7063 21.0502 86.3514 21.0502H84.1875Z" fill="#156738"/>
<path fill-rule="evenodd" clip-rule="evenodd" d="M17.7456 14.4731C16.325 14.4731 15.1279 15.6655 15.1279 17.1592V24.3198C15.1279 25.8417 16.371 26.9631 17.8048 26.9631C18.1271 26.9631 18.4625 26.9059 18.7914 26.7816L21.4881 25.6642L23.8822 26.7073C24.2374 26.8566 24.5991 26.9237 24.9477 26.9237C26.3749 26.9237 27.618 25.799 27.618 24.2448V17.1592C27.618 15.6655 26.4275 14.4731 25.0003 14.4731H17.7456Z" fill="#F9A419"/>
<path fill-rule="evenodd" clip-rule="evenodd" d="M5.91895 36.8322V49.3256H74.5387C78.0575 49.3256 80.8988 46.5487 80.8988 43.1154C80.8988 39.6821 78.0575 36.8322 74.5387 36.8322H5.91895Z" fill="white"/>
<path fill-rule="evenodd" clip-rule="evenodd" d="M74.4663 36.8322C75.887 40.9259 72.8221 45.1622 68.4088 45.1622H5.91895V49.3256H74.5387C78.0575 49.3256 80.8988 46.5487 80.8988 43.1154C80.8988 39.6821 78.0575 36.8322 74.5387 36.8322H74.4663Z" fill="#156738"/>
<path fill-rule="evenodd" clip-rule="evenodd" d="M3.35386 28.9428C1.85426 28.9428 0.657227 30.1201 0.657227 31.5915V34.1691C0.657227 35.6443 1.85426 36.821 3.35386 36.821H74.6374C78.2351 36.821 81.1554 39.6932 81.1554 43.2278C81.1554 46.6887 78.3074 49.4137 74.7886 49.4137V49.34H3.35386C1.85426 49.34 0.657227 50.5206 0.657227 51.9919V54.6432C0.657227 56.0448 1.85426 57.2214 3.35386 57.2214H74.7886C82.576 57.0741 88.7915 50.7409 88.7915 43.0805C88.7915 35.4233 82.576 29.1638 74.7886 28.9428H3.35386Z" fill="#2EC56E"/>
<path fill-rule="evenodd" clip-rule="evenodd" d="M70.3818 28.9428C78.1363 29.0902 84.3188 35.4233 84.3188 43.0805C84.3188 50.7409 78.1363 57.0004 70.3818 57.2214H74.8478C82.6023 57.0004 88.7914 50.7409 88.7914 43.0805C88.7914 35.4233 82.6023 29.0902 74.8478 28.9428H70.3818Z" fill="#156738"/>
<path fill-rule="evenodd" clip-rule="evenodd" d="M64.5087 43.4093C63.0025 43.4093 61.8252 44.5801 61.8252 46.0323V53.1403C61.8252 54.703 63.1867 55.8277 64.6534 55.8277C65.0152 55.8277 65.3834 55.76 65.7452 55.6107L68.3235 54.5643L71.1385 55.685C71.5003 55.835 71.8685 55.9027 72.2303 55.9027C73.6707 55.9027 74.973 54.7885 74.973 53.2896V46.0323C74.973 44.6518 73.7957 43.4093 72.2895 43.4093C72.2435 43.4093 72.204 43.4126 72.1579 43.4126H64.6468C64.6008 43.4126 64.5481 43.4093 64.5087 43.4093Z" fill="#F9A419"/>
</svg>
