<svg width="47" height="49" viewBox="0 0 47 49" fill="none" xmlns="http://www.w3.org/2000/svg">
<path fill-rule="evenodd" clip-rule="evenodd" d="M23.049 0.0771484C22.3847 0.0771484 21.7208 0.400206 21.3381 1.03868L18.4718 5.87283C18.1001 6.48851 17.4502 6.83817 16.7791 6.83817C16.5119 6.83817 16.2409 6.78493 15.9848 6.66711L10.801 4.45528C10.5448 4.34506 10.2814 4.29564 10.0249 4.29564C8.90947 4.29564 7.92782 5.25337 8.03955 6.45811L8.55602 12.0866C8.62443 13.0899 7.97114 13.9868 7.00355 14.1958L1.54572 15.4386C0.058607 15.7502 -0.493978 17.544 0.505919 18.6841L4.20261 22.8989C4.85933 23.6552 4.85933 24.7648 4.20261 25.5211L0.505919 29.7359C-0.493978 30.876 0.058607 32.6394 1.54572 32.9814L7.00355 34.2242C8.00344 34.4332 8.66053 35.3643 8.55602 36.3334L8.03955 41.9619C7.92782 43.1666 8.90947 44.1244 10.0249 44.1244C10.2814 44.1244 10.5448 44.0749 10.801 43.9647L15.9848 41.7529C16.2409 41.6503 16.5081 41.6009 16.768 41.6009C17.4612 41.6009 18.1218 41.9467 18.4718 42.5472L21.3381 47.3813C21.7208 48.0198 22.3847 48.3428 23.049 48.3428C23.7134 48.3428 24.3811 48.0198 24.76 47.3813L27.6263 42.5472C27.998 41.9315 28.6551 41.5932 29.3266 41.5932C29.5938 41.5932 29.8606 41.6465 30.1133 41.7529L35.2971 43.9647C35.5533 44.0749 35.817 44.1244 36.0732 44.1244C37.1886 44.1244 38.1703 43.1666 38.0585 41.9619L37.5747 36.3638C37.4736 35.3643 38.1307 34.4332 39.0945 34.2242L44.5884 32.9814C46.0398 32.6394 46.6281 30.876 45.6245 29.7359L41.9281 25.5211C41.271 24.7648 41.271 23.6552 41.9281 22.8989L45.6245 18.6841C46.6281 17.544 46.0398 15.7502 44.5561 15.4386L39.0945 14.1958C38.1307 13.9526 37.4736 13.0557 37.5424 12.0562L38.0585 6.45811C38.1703 5.23437 37.2065 4.27667 36.1055 4.27667C35.8387 4.27667 35.5643 4.33366 35.2971 4.45528L30.1133 6.66711C29.8606 6.76593 29.5972 6.81914 29.3338 6.81914C28.6406 6.81914 27.9801 6.46571 27.6263 5.83484L24.76 1.03868C24.3811 0.400206 23.7134 0.0771484 23.049 0.0771484Z" fill="#F9A419"/>
<path fill-rule="evenodd" clip-rule="evenodd" d="M23.1639 0.0771484C22.5064 0.0771484 21.8493 0.400219 21.4708 1.0463L20.7883 2.23203L22.9424 5.93745C23.3068 6.56073 23.9533 6.91415 24.618 6.91415C24.8821 6.91415 25.15 6.86096 25.4039 6.73935L27.6256 5.79305L24.857 1.0463C24.4819 0.400219 23.8214 0.0771484 23.1639 0.0771484Z" fill="#BD7600"/>
<path fill-rule="evenodd" clip-rule="evenodd" d="M36.0556 4.25764C35.7873 4.25764 35.5114 4.31463 35.2431 4.43625L32.9871 5.3712C33.1612 5.71324 33.2303 6.06286 33.1939 6.4429L32.6751 12.0486C32.5702 13.0519 33.2304 13.9526 34.2348 14.192L39.7189 15.4424C41.2132 15.7502 41.7681 17.5478 40.7959 18.6917L37.0821 22.914C36.3893 23.6399 36.3893 24.7839 37.0821 25.544L40.7959 29.7663C41.7681 30.9064 41.2132 32.6736 39.7189 33.0156L34.2348 34.2622C33.2304 34.4674 32.5702 35.4061 32.6751 36.3752L33.1939 41.9771C33.2303 42.3571 33.1612 42.7067 32.9871 43.0526L35.2431 43.9837C35.5114 44.1092 35.7873 44.1623 36.0556 44.1623C37.1619 44.1623 38.1303 43.2046 38.0178 41.9771L37.499 36.4056C37.3937 35.4061 38.0539 34.4674 39.0587 34.2622L44.5462 33.0156C46.0367 32.6736 46.5916 30.9064 45.6198 29.7663L41.9056 25.544C41.2459 24.7839 41.2459 23.6741 41.9056 22.914L45.6198 18.6917C46.6281 17.5478 46.0367 15.7502 44.5462 15.4424L39.0587 14.192C38.0904 13.9526 37.4302 13.0519 37.499 12.0486L38.0178 6.4429C38.1303 5.21536 37.1619 4.25764 36.0556 4.25764Z" fill="#BD7600"/>
<path fill-rule="evenodd" clip-rule="evenodd" d="M24.631 41.5059C23.9557 41.5059 23.2914 41.8555 22.9182 42.4636L20.785 46.1805L21.4744 47.37C21.8514 48.016 22.5051 48.3429 23.1622 48.3429C23.8193 48.3429 24.4802 48.016 24.875 47.37L27.6258 42.6422L25.3923 41.6579C25.1479 41.5515 24.8895 41.5059 24.631 41.5059Z" fill="#BD7600"/>
<path fill-rule="evenodd" clip-rule="evenodd" d="M23.0213 9.95831C14.9423 9.95831 9.00714 16.5179 9.00714 23.9744C9.00714 32.3544 15.8407 38.0778 23.0642 38.0778C26.0818 38.0778 29.1708 37.0821 31.8554 34.8589C36.0686 31.4119 37.8833 25.867 36.5482 20.5654C35.2454 15.2942 31.0322 11.2657 25.7238 10.1977C24.8003 10.0381 23.898 9.95831 23.0213 9.95831Z" fill="#C07700"/>
<path fill-rule="evenodd" clip-rule="evenodd" d="M17.9686 17.0804C18.4816 17.0804 19.0019 17.2628 19.4165 17.6732C20.741 18.9388 19.8023 21.067 17.9541 21.067C16.8079 21.067 15.8658 20.1701 15.8658 19.0718C15.8658 17.8784 16.9025 17.0804 17.9686 17.0804ZM17.9431 15.659C17.0664 15.659 16.1713 15.9706 15.4474 16.6737C13.1842 18.8058 14.7887 22.4998 17.9541 22.4998C19.9406 22.4998 21.5087 20.9682 21.5414 19.0718C21.5414 17.0233 19.7768 15.659 17.9431 15.659Z" fill="#F9A419"/>
<path fill-rule="evenodd" clip-rule="evenodd" d="M28.1714 26.9881C29.3241 27.0261 30.2655 27.9458 30.2655 29.105C30.2655 30.3971 29.2405 31.2522 28.168 31.2522C27.6534 31.2522 27.132 31.0584 26.7052 30.6252C25.3773 29.2836 26.3183 26.9881 28.1714 26.9881ZM28.2117 25.544C28.2007 25.544 28.1862 25.544 28.1714 25.544C26.1796 25.544 24.6111 27.1287 24.6111 29.105C24.5857 31.3054 26.3514 32.7572 28.2007 32.7572C29.0835 32.7572 29.9846 32.4266 30.7177 31.6855C32.9429 29.4014 31.3634 25.544 28.2117 25.544Z" fill="#F9A419"/>
<path fill-rule="evenodd" clip-rule="evenodd" d="M29.6009 16.7991C29.4223 16.7991 29.2326 16.8789 29.0684 17.0727L16.682 29.637C16.2279 30.1501 16.6961 30.8569 17.2468 30.8569C17.4003 30.8569 17.5615 30.8037 17.7078 30.6745L30.0942 18.114C30.6662 17.5858 30.1729 16.7991 29.6009 16.7991Z" fill="#F9A419"/>
</svg>
