<svg width="1512" height="438" viewBox="0 0 1512 438" fill="none"
    xmlns="http://www.w3.org/2000/svg">
    <g clip-path="url(#clip0_630_1763)">
        <rect width="1512" height="438" fill="white" />
        <path
            d="M187.352 294.935C-133.398 102.336 -324.202 -224.17 -356.503 -570.13L-685 -23.0361L748.89 837.959L757.228 456.35C556.265 454.384 359.494 398.65 187.352 294.935Z"
            fill="url(#paint0_linear_630_1763)" />
        <path
            d="M187.352 294.935C-133.398 102.336 -324.202 -224.17 -356.503 -570.13L-685 -23.0361L700.855 809.116C717.355 803.207 733.717 796.89 749.94 790.165L757.228 456.35C556.265 454.384 359.494 398.65 187.352 294.935Z"
            fill="url(#paint1_linear_630_1763)" />
        <path
            d="M187.352 294.935C-133.398 102.336 -324.202 -224.17 -356.503 -570.13L-685 609.208L200.723 508.805C383.66 544.622 571.357 549.062 755.783 521.935L757.228 456.284C556.272 454.339 359.501 398.627 187.352 294.935Z"
            fill="url(#paint2_linear_630_1763)" />
        <path
            d="M187.352 294.935C-133.398 102.336 -324.203 -224.17 -356.503 -570.13L-510.477 -313.718C-399.101 -67.1596 -214.979 139.436 17.184 278.347C239.868 412.545 497.086 478.326 756.855 467.51L757.096 456.35C556.178 454.361 359.456 398.627 187.352 294.935Z"
            fill="url(#paint3_linear_630_1763)" />
        <path
            d="M188.993 292.221C-131.757 99.6224 -322.583 -226.883 -354.84 -572.844L-476.82 -369.85C-375.578 -95.9363 -183.767 135.153 66.8164 285.109C274.817 410.452 514.181 474.04 756.964 468.451L757.293 453.614C556.866 451.393 360.671 395.675 188.993 292.221Z"
            fill="url(#paint4_linear_630_1763)" />
        <path
            d="M689.519 832.684H689.826L692.671 818.022L689.519 832.684ZM703.065 763.444H703.306L705.494 752.502L703.065 763.444ZM707.573 740.357H707.792L709.696 730.553L707.573 740.357ZM698.557 786.51H698.82L701.183 774.299L698.557 786.51ZM694.027 809.685H694.312L696.938 796.27L694.027 809.685ZM671.509 924.99H671.925L675.732 905.295L671.509 924.99ZM675.886 901.925H676.28L679.847 883.564L675.886 901.925ZM680.394 878.837H680.766L684.092 861.68L680.394 878.837ZM684.924 855.75H685.252L688.359 839.819L684.924 855.75ZM1492.7 252.086C1494.32 244.442 1495.78 236.782 1497.07 229.108C1498.72 221.405 1500.2 213.68 1501.63 205.912C1503.05 198.143 1504.73 190.593 1506.13 182.846C1507.53 175.099 1509.24 167.528 1510.64 159.781C1512.04 152.034 1513.77 144.462 1515.17 136.693C1516.57 128.925 1518.28 121.375 1519.68 113.606C1521.08 105.837 1522.79 98.2873 1524.19 90.5186C1525.59 82.7498 1527.32 75.1999 1528.72 67.4531C1530.12 59.7062 1531.8 52.1345 1533.09 44.4533C1534.39 36.7721 1536.22 29.1346 1537.62 21.3002C1539.03 13.4658 1540.75 5.98161 1542.15 -1.78713C1543.55 -9.55586 1545.26 -17.1058 1546.66 -24.8964C1548.06 -32.687 1549.77 -40.215 1551.17 -47.9619C1552.57 -55.7087 1554.3 -63.2805 1555.7 -71.0273C1557.1 -78.7742 1558.81 -86.346 1560.21 -94.1147C1571.34 -146.878 1577.3 -200.602 1578 -254.523H1575.68C1575.33 -227.387 1573.67 -200.492 1570.69 -173.837C1572.27 -192.92 1573.19 -212.112 1573.47 -231.413H1571.28C1570.9 -204.292 1569.24 -177.404 1566.29 -150.75C1567.85 -169.811 1568.81 -189.003 1569.07 -208.304H1566.75C1566.4 -181.197 1564.75 -154.31 1561.78 -127.641C1563.34 -146.701 1564.3 -165.893 1564.56 -185.195H1562.24C1561.89 -158.059 1560.23 -131.171 1557.25 -104.531C1558.83 -123.585 1559.76 -142.762 1560.03 -162.064H1557.74C1557.37 -134.957 1555.71 -108.069 1552.75 -81.4003C1554.3 -100.461 1555.26 -119.653 1555.53 -138.955H1553.42C1553.07 -111.833 1551.42 -84.9454 1548.46 -58.291C1550.01 -77.3737 1550.97 -96.5438 1551.24 -115.845H1548.92C1548.57 -89.6723 1547 -63.7328 1544.21 -38.0266C1544.21 -37.8953 1544.21 -37.7859 1544.21 -37.6765C1545.66 -55.9057 1546.55 -74.2661 1546.79 -92.736H1544.61C1544.3 -70.5751 1543.12 -48.5527 1541.08 -26.669C1540.91 -26.1437 1540.75 -25.6404 1540.6 -25.1152C1541.56 -39.8868 1542.2 -54.7239 1542.4 -69.6268H1540.08C1539.84 -51.4049 1539 -33.2779 1537.54 -15.2457L1536.68 -12.4664C1537.27 -23.7803 1537.73 -35.138 1537.87 -46.5175H1535.68C1535.49 -32.3806 1534.95 -18.3094 1534.06 -4.30378C1533.64 -3.10017 1533.25 -1.91844 1532.85 -0.736716C1533.14 -8.26473 1533.38 -15.8146 1533.47 -23.3864H1531.17C1531.02 -13.101 1530.64 -2.8813 1530.14 7.25088C1529.66 8.60767 1529.13 9.92069 1528.65 11.2775C1528.65 7.40406 1528.89 3.53061 1528.96 -0.364696H1526.64C1526.64 5.78464 1526.4 11.934 1526.18 18.0833L1524.43 22.8102H1522.11C1522.11 24.9986 1521.98 27.187 1521.93 29.3753C1517.41 41.1926 1512.6 52.9223 1507.49 64.5645C1421.37 260.266 1262.58 414.846 1064.63 495.675C962.804 537.134 853.653 557.596 743.725 555.833L739.48 577.717L743.725 558.021C851.884 559.595 959.288 539.782 1059.77 499.722C1160.24 459.662 1251.82 400.144 1329.23 324.587C1405.44 250.574 1466.57 162.476 1509.22 65.1772C1511.96 58.933 1514.62 52.667 1517.19 46.3791C1517.19 48.3048 1517.08 50.2087 1517.03 52.1344C1512.48 63.9517 1507.67 75.6814 1502.59 87.3236C1416.51 283.107 1257.7 437.766 1059.71 518.631C958.02 560.083 849.014 580.582 739.217 578.899L735.191 599.557L739.152 581.218C847.329 582.785 954.749 562.959 1055.24 522.88C1155.73 482.8 1247.31 423.258 1324.72 347.675C1400.93 273.658 1462.05 185.551 1504.69 88.2426C1507.43 82.0131 1510.09 75.747 1512.66 69.4445C1512.66 71.3703 1512.66 73.296 1512.52 75.1999C1507.97 87.0172 1503.18 98.7687 1498.06 110.411C1411.95 306.124 1253.15 460.71 1055.2 541.521C953.516 582.96 844.519 603.458 734.731 601.789L730.945 621.244L734.644 604.087C842.804 605.682 950.214 585.889 1050.7 545.843C1151.19 505.798 1242.77 446.291 1320.19 370.74C1396.41 296.733 1457.54 208.633 1500.18 111.33C1502.92 105.086 1505.58 98.8198 1508.15 92.5319C1508.15 94.4577 1508.15 96.3835 1507.99 98.2873C1503.46 110.105 1498.64 121.834 1493.55 133.476C1407.43 329.178 1248.63 483.758 1050.69 564.586C949.016 606.03 840.027 626.535 730.245 624.876L726.7 643.018L730.136 627.174C838.291 628.773 945.696 608.988 1046.18 568.954C1146.67 528.921 1238.25 469.428 1315.68 393.893C1391.89 319.88 1453.02 231.782 1495.67 134.483C1498.42 128.239 1501.07 121.973 1503.64 115.685C1503.64 117.611 1503.64 119.515 1503.49 121.44C1498.93 133.258 1494.12 144.987 1489.04 156.629C1402.92 352.339 1244.12 506.922 1046.16 587.74C944.494 629.182 835.511 649.68 725.737 648.007L722.454 664.945L725.606 650.327C887.497 652.431 1046.42 606.822 1182.56 519.19C1318.7 431.557 1426.02 305.78 1491.14 157.549C1495.52 147.832 1499.44 138.006 1503.31 128.159C1503.31 129.844 1503.31 131.551 1503.18 133.236C1497.42 148.861 1491.25 164.376 1484.51 179.717C1419.75 327.631 1312.78 453.152 1177.01 540.561C1041.25 627.971 882.707 673.385 721.251 671.117L718.187 686.829L721.098 673.414C829.264 674.998 936.677 655.191 1037.16 615.131C1137.65 575.07 1229.23 515.547 1306.64 439.98C1382.87 365.978 1444 277.878 1486.64 180.57C1492.47 167.44 1497.88 154.171 1502.85 140.764C1502.85 142.339 1502.7 143.893 1502.61 145.447C1495.83 164.777 1488.29 183.867 1480 202.717C1415.25 350.644 1308.3 476.18 1172.53 563.606C1036.77 651.032 878.227 696.46 716.765 694.204L713.942 708.713L716.568 696.502C824.737 698.083 932.153 678.274 1032.64 638.214C1133.13 598.154 1224.72 538.632 1302.13 463.068C1378.35 389.054 1439.47 300.956 1482.13 203.658C1489.42 187.026 1496.13 170.248 1502.24 153.325C1502.24 154.55 1502.11 155.798 1502.02 157.023C1494.23 180.278 1485.39 203.235 1475.5 225.892C1410.73 373.795 1303.77 499.306 1168.01 586.711C1032.25 674.116 873.725 719.531 712.278 717.27L709.696 730.553L712.06 719.611C873.963 721.706 1032.9 676.081 1169.04 588.428C1305.18 500.775 1412.49 374.975 1477.6 226.723C1486.35 206.809 1494.26 186.632 1501.32 166.193C1501.32 167.177 1501.19 168.14 1501.1 169.103C1447.61 336.796 1341.62 482.847 1198.77 585.693C1055.92 688.54 883.793 742.732 707.792 740.269L705.429 752.349L707.617 742.567C869.491 744.643 1028.4 699.024 1164.52 611.399C1300.64 523.773 1407.96 398.017 1473.09 249.81C1483.3 226.468 1492.38 202.833 1500.31 178.907C1500.31 179.542 1500.18 180.154 1500.14 180.789C1448.52 351.21 1342.86 500.216 1199.12 605.32C1055.38 710.425 881.356 765.925 703.306 763.444L701.118 774.386L702.978 765.83C864.893 767.917 1023.84 722.284 1159.99 634.625C1296.14 546.965 1403.47 421.158 1468.58 272.898C1480.11 246.573 1490.26 219.663 1498.98 192.278C1498.98 192.278 1498.98 192.453 1498.98 192.541C1449.25 365.624 1343.98 517.546 1199.38 624.884C1054.78 732.222 878.887 789.016 698.82 786.51L696.938 796.182L698.513 788.829C875.471 791.289 1048.51 736.67 1191.99 633.065C1335.47 529.461 1441.75 382.385 1495.08 213.637C1445.71 387.209 1340.51 539.67 1195.75 647.419C1050.99 755.169 874.752 812.2 694.312 809.685L692.671 818.11L694.005 811.982C870.962 814.451 1044.01 759.837 1187.49 656.236C1330.97 552.634 1437.25 405.56 1490.57 236.812C1441.17 410.348 1335.96 562.766 1191.21 670.482C1046.46 778.198 870.239 835.205 689.826 832.684L688.447 839.819L689.475 834.982C866.438 837.463 1039.49 782.852 1182.97 679.244C1326.46 575.637 1432.73 428.549 1486.04 259.789C1436.66 433.335 1331.46 585.768 1186.71 693.499C1041.97 801.231 865.757 858.256 685.339 855.75L684.18 861.68L684.967 858.07C861.922 860.5 1034.95 805.866 1178.43 702.262C1321.9 598.657 1428.19 451.593 1481.54 282.855C1432.16 456.401 1326.96 608.836 1182.22 716.571C1037.48 824.307 861.27 881.337 680.853 878.837L679.934 883.564L680.459 881.135C857.381 883.581 1030.38 828.961 1173.83 725.368C1317.27 621.776 1423.52 474.725 1476.83 306.008C1427.45 479.505 1322.28 631.898 1177.59 739.618C1032.89 847.337 856.738 904.38 676.367 901.925L675.689 905.404L675.929 904.222C852.886 906.674 1025.92 852.044 1169.4 748.432C1312.87 644.819 1419.14 497.737 1472.45 328.986C1423.09 502.518 1317.91 654.944 1173.19 762.682C1028.47 870.42 852.282 927.464 671.881 924.99L671.421 927.31C866.052 930.044 1055.35 863.712 1205.71 740.094C1356.07 616.476 1457.75 443.573 1492.7 252.086ZM1539.62 -15.3332C1539.62 -15.3332 1539.62 -15.1581 1539.62 -15.0706C1539.62 -14.9831 1539.62 -14.8299 1539.62 -14.7204C1539.63 -14.8149 1539.63 -14.9105 1539.62 -15.0049C1539.62 -15.0049 1539.57 -15.3332 1539.62 -15.3332ZM1536.44 -5.61679L1536.25 -3.75669C1536.09 -3.23148 1535.94 -2.70626 1535.76 -2.18105C1535.76 -2.81568 1535.87 -3.42843 1535.92 -4.06306L1536.44 -5.61679ZM1531.74 19.3307C1531.58 19.8559 1531.41 20.3592 1531.26 20.8844C1531.26 20.2717 1531.26 19.6371 1531.39 19.0243L1531.93 17.4487L1531.74 19.3307ZM1532.94 4.7561C1532.94 5.71898 1532.79 6.68188 1532.72 7.64477C1532.66 8.60765 1532.15 9.5049 1531.85 10.424C1531.85 9.46113 1531.96 8.47636 1532 7.51347C1532.04 6.55059 1532.61 5.56582 1532.94 4.6467V4.7561ZM1528.19 30.6227C1527.91 31.5418 1527.65 32.4828 1527.34 33.4019C1527.34 32.439 1527.34 31.4543 1527.49 30.4914C1527.65 29.5285 1528.11 28.6313 1528.41 27.7122C1528.35 28.697 1528.28 29.6598 1528.19 30.6227ZM1529.33 14.7351C1529.33 15.9825 1529.2 17.2299 1529.11 18.4554C1529.02 19.6808 1528.32 20.8407 1527.91 22.0224C1527.91 20.7532 1527.91 19.4839 1528.06 18.1928C1528.48 17.0548 1528.91 15.895 1529.35 14.7351H1529.33ZM1524.6 41.5646L1523.4 45.1098L1523.53 41.302C1523.97 40.1422 1524.38 39.0042 1524.8 37.8443L1524.6 41.5646ZM1525.44 25.3925C1525.44 26.9462 1525.28 28.5 1525.19 30.0756C1524.73 31.4105 1524.21 32.7454 1523.73 34.0803C1523.73 32.5703 1523.73 31.0604 1523.84 29.5285C1524.38 28.128 1524.98 26.7493 1525.44 25.3706V25.3925ZM1520.6 53.1192C1520.12 54.476 1519.61 55.8109 1519.13 57.1458C1519.13 55.6358 1519.13 54.104 1519.13 52.594C1519.66 51.2154 1520.2 49.8367 1520.73 48.4361C1520.84 50.0118 1520.75 51.5655 1520.6 53.1192ZM1517.45 45.4818C1518.76 42.2649 1520.01 38.9167 1521.28 35.7654C1521.28 37.4505 1521.28 39.1574 1521.15 40.8425C1520.58 42.4181 1520.01 44.0156 1519.42 45.5912L1517.45 45.4818ZM1512.94 68.5692C1514.25 65.3304 1515.5 62.004 1516.77 58.8528C1516.77 60.5378 1516.77 62.2448 1516.64 63.9298C1516.07 65.5054 1515.5 67.103 1514.91 68.6786L1512.94 68.5692ZM1508.41 91.6566C1509.74 88.4178 1510.97 85.0914 1512.26 81.9183C1512.26 83.6252 1512.26 85.3103 1512.13 86.9953L1510.38 91.766L1508.41 91.6566ZM1505.87 114.831H1503.9C1505.21 111.615 1506.46 108.266 1507.73 105.115C1507.73 106.822 1507.73 108.507 1507.6 110.192C1507.12 111.593 1506.55 113.256 1505.96 114.831H1505.87ZM1514.73 75.6814L1516.31 71.5235C1516.31 73.0772 1516.16 74.6309 1516.09 76.2066C1515.61 77.5415 1515.08 78.8764 1514.6 80.2332L1514.73 75.6814ZM1511.85 94.6108C1511.85 96.1646 1511.69 97.7183 1511.6 99.294C1511.15 100.629 1510.62 101.964 1510.14 103.321C1510.14 101.789 1510.14 100.279 1510.14 98.7688C1510.82 97.3682 1511.36 95.9895 1511.85 94.6108ZM1505.61 126.386L1505.74 121.834L1507.34 117.698C1507.34 119.252 1507.16 120.806 1507.1 122.359C1506.66 123.716 1506.13 125.051 1505.65 126.386H1505.61ZM1518.98 64.3675C1519.4 63.2077 1519.83 62.0478 1520.25 60.9098L1520.05 64.6082C1519.64 65.7899 1519.24 66.9935 1518.85 68.1753L1518.98 64.3675ZM1515.74 84.0629C1515.74 85.3103 1515.61 86.5357 1515.52 87.7831C1515.43 89.0305 1514.73 90.1466 1514.32 91.3502C1514.32 90.0809 1514.43 88.8116 1514.47 87.5205C1514.93 86.295 1515.37 85.1352 1515.78 83.9753L1515.74 84.0629ZM1511.21 107.15C1511.21 108.376 1511.1 109.623 1511.01 110.849C1510.93 112.074 1510.2 113.234 1509.81 114.438L1509.94 110.608C1510.42 109.404 1510.84 108.223 1511.25 107.063L1511.21 107.15ZM1505.28 137.415C1505.28 136.146 1505.39 134.877 1505.43 133.608C1505.85 132.448 1506.29 131.31 1506.7 130.15C1506.7 131.376 1506.57 132.623 1506.48 133.87C1506.4 135.118 1505.74 136.234 1505.28 137.415ZM1522.92 53.5569C1523.25 52.6378 1523.55 51.7187 1523.86 50.7996C1523.86 51.7624 1523.73 52.7253 1523.64 53.7101L1522.79 56.4893L1522.92 53.5569ZM1519.35 73.8869C1519.35 74.8498 1519.2 75.8127 1519.13 76.7756C1519.07 77.7385 1518.56 78.6357 1518.26 79.5548C1518.26 78.5919 1518.26 77.6072 1518.41 76.6443C1518.56 75.6814 1519.07 74.806 1519.4 73.8869H1519.35ZM1514.82 96.9524L1514.62 99.863C1514.32 100.782 1514.06 101.723 1513.75 102.642C1513.75 101.679 1513.86 100.694 1513.9 99.7316C1513.95 98.7687 1514.56 97.8715 1514.87 96.9524H1514.82ZM1510.31 120.04C1510.31 121.003 1510.18 121.966 1510.09 122.95L1509.24 125.73L1509.37 122.819C1509.66 121.9 1510.05 120.959 1510.36 120.04H1510.31ZM1504.76 148.795C1504.76 147.832 1504.76 146.869 1504.91 145.885C1505.06 144.9 1505.52 144.046 1505.85 143.127C1505.85 144.09 1505.7 145.053 1505.63 146.016C1505.56 146.979 1505.06 147.876 1504.76 148.795ZM1526.88 42.0023L1527.4 40.4267C1527.4 41.0394 1527.27 41.674 1527.23 42.3086C1527.19 42.9433 1526.9 43.3372 1526.75 43.8624L1526.88 42.0023ZM1522.9 63.4484L1522.7 65.3085C1522.55 65.8337 1522.39 66.3589 1522.22 66.8622C1522.22 66.2495 1522.22 65.6367 1522.37 65.0021L1522.9 63.4484ZM1518.41 86.5795L1518.21 88.4615C1518.06 88.9867 1517.89 89.4901 1517.73 90.0153C1517.73 89.4025 1517.84 88.7679 1517.86 88.1551L1518.41 86.5795ZM1513.88 109.667C1513.88 110.301 1513.75 110.914 1513.71 111.549C1513.66 112.184 1513.38 112.577 1513.22 113.103L1513.36 111.242L1513.88 109.667ZM1509.37 132.754L1509.18 134.614C1509.02 135.14 1508.87 135.665 1508.69 136.19C1508.69 135.555 1508.8 134.943 1508.85 134.33L1509.37 132.754ZM1504.19 159.255C1504.19 158.643 1504.19 158.008 1504.32 157.395L1504.86 155.82L1504.67 157.702C1504.49 158.227 1504.32 158.73 1504.16 159.255H1504.19ZM1535 8.25751C1535 8.25751 1535 8.06055 1535 7.97301V7.64477C1534.99 7.73197 1534.99 7.82016 1535 7.90736C1535 7.90736 1535.02 8.14809 1534.98 8.25751H1535ZM1530.49 31.323C1530.48 31.2358 1530.48 31.1476 1530.49 31.0604C1530.49 30.951 1530.49 30.8415 1530.49 30.7321C1530.5 30.812 1530.5 30.8929 1530.49 30.9729C1530.53 31.1042 1530.49 31.2136 1530.47 31.323H1530.49ZM1525.96 54.4104C1525.97 54.3159 1525.97 54.2203 1525.96 54.1259V53.7976C1525.96 53.7976 1525.96 53.9727 1525.96 54.0602C1525.96 54.1477 1525.98 54.3009 1525.94 54.4104H1525.96ZM1521.45 77.4978C1521.45 77.3883 1521.45 77.3008 1521.45 77.2133C1521.45 77.1257 1521.45 76.9944 1521.56 76.885C1521.55 76.9722 1521.55 77.0604 1521.56 77.1476C1521.5 77.257 1521.47 77.3665 1521.43 77.4978H1521.45ZM1516.92 100.651C1516.91 100.564 1516.91 100.475 1516.92 100.388C1516.92 100.388 1516.92 100.169 1516.92 100.06C1516.93 100.147 1516.93 100.235 1516.92 100.323C1516.99 100.344 1516.94 100.454 1516.92 100.651ZM1512.39 123.738C1512.4 123.644 1512.4 123.548 1512.39 123.454C1512.39 123.344 1512.39 123.235 1512.39 123.125C1512.39 123.016 1512.39 123.3 1512.39 123.388C1512.39 123.476 1512.44 123.519 1512.39 123.651V123.738ZM1507.88 146.826C1507.88 146.826 1507.88 146.629 1507.88 146.541C1507.88 146.453 1507.88 146.322 1507.88 146.191C1507.87 146.285 1507.87 146.381 1507.88 146.475C1507.95 146.607 1507.93 146.607 1507.88 146.738V146.826ZM1503.38 169.891C1503.37 169.804 1503.37 169.716 1503.38 169.628C1503.38 169.519 1503.38 169.41 1503.38 169.3C1503.39 169.387 1503.39 169.475 1503.38 169.563C1503.44 169.585 1503.4 169.694 1503.38 169.803V169.891ZM716.611 694.204H716.765L718.187 686.829L716.611 694.204ZM721.119 671.117H721.251L722.454 664.967L721.119 671.117ZM712.103 717.27H712.278L713.942 708.713L712.103 717.27Z"
            fill="url(#paint5_linear_630_1763)" />
    </g>
    <defs>
        <linearGradient id="paint0_linear_630_1763" x1="105.254" y1="170.452" x2="816.82"
            y2="-114.787" gradientUnits="userSpaceOnUse">
            <stop stop-color="#FEBE10" />
            <stop offset="1" stop-color="#F79027" />
        </linearGradient>
        <linearGradient id="paint1_linear_630_1763" x1="879.349" y1="-222.99" x2="445.754"
            y2="-11.4814" gradientUnits="userSpaceOnUse">
            <stop stop-color="#354B5B" />
            <stop offset="1" stop-color="#1A2934" />
        </linearGradient>
        <linearGradient id="paint2_linear_630_1763" x1="69.8884" y1="270.849" x2="401.101"
            y2="411.796" gradientUnits="userSpaceOnUse">
            <stop stop-color="#27B262" />
            <stop offset="1" stop-color="#27B262" />
        </linearGradient>
        <linearGradient id="paint3_linear_630_1763" x1="189.492" y1="-46.934" x2="781.683"
            y2="-284.311" gradientUnits="userSpaceOnUse">
            <stop stop-color="#FEBE10" />
            <stop offset="1" stop-color="#F79027" />
        </linearGradient>
        <linearGradient id="paint4_linear_630_1763" x1="188.862" y1="-18.6156" x2="743.265"
            y2="160.612" gradientUnits="userSpaceOnUse">
            <stop stop-color="white" />
            <stop offset="1" stop-color="#C7CACA" />
        </linearGradient>
        <linearGradient id="paint5_linear_630_1763" x1="1021.84" y1="869.995" x2="1106.35"
            y2="455.892" gradientUnits="userSpaceOnUse">
            <stop stop-color="white" />
            <stop offset="1" stop-color="#C7CACA" />
        </linearGradient>
        <clipPath id="clip0_630_1763">
            <rect width="1512" height="438" fill="white" />
        </clipPath>
    </defs>
</svg>
