<svg width="54" height="49" viewBox="0 0 54 49" fill="none" xmlns="http://www.w3.org/2000/svg">
<path fill-rule="evenodd" clip-rule="evenodd" d="M17.3224 25.8851C17.1965 25.8851 17.0601 25.9096 16.9272 25.9655L12.6742 27.5499L18.8194 44.0687L23.0723 42.4528C23.576 42.2604 23.8592 41.6904 23.6704 41.1832L18.2178 26.5042C18.0779 26.1229 17.7211 25.8851 17.3224 25.8851Z" fill="white"/>
<path fill-rule="evenodd" clip-rule="evenodd" d="M24.8841 4.89652C20.2639 4.89652 16.5181 8.5584 16.5181 13.0982C16.5181 17.6239 20.2639 21.3313 24.8806 21.3313C24.9016 21.3313 24.9191 21.3313 24.9366 21.3313C29.5568 21.3313 33.2712 17.6729 33.3061 13.1297C33.3061 8.6039 29.5568 4.89652 24.9436 4.89652C24.9226 4.89652 24.9051 4.89652 24.8841 4.89652Z" fill="#F9A419"/>
<path fill-rule="evenodd" clip-rule="evenodd" d="M24.8527 7.69453C21.8133 7.69453 19.3161 10.1882 19.3161 13.2765C19.3161 16.3823 21.8133 18.8866 24.8806 18.8866C24.9016 18.8866 24.9156 18.8866 24.9366 18.8866C28.0074 18.8866 30.4766 16.3964 30.5046 13.3046C30.5046 10.2023 28.0074 7.69803 24.9121 7.69803C24.8911 7.69803 24.8737 7.69453 24.8527 7.69453Z" fill="#C07700"/>
<path fill-rule="evenodd" clip-rule="evenodd" d="M24.6694 7.69453C21.6949 7.69453 19.1473 10.1473 19.1193 13.2753C19.1193 16.4337 21.6634 18.8866 24.6378 18.8866C24.9983 18.8866 25.3657 18.8493 25.7366 18.778C23.1331 18.2691 21.2854 15.9622 21.2854 13.2753C21.2854 10.6189 23.1646 8.31196 25.7646 7.80647C25.3937 7.73183 25.0263 7.69453 24.6694 7.69453Z" fill="#905900"/>
<path fill-rule="evenodd" clip-rule="evenodd" d="M24.6394 10.9927V12.4197C24.0308 12.1993 23.8699 12.0104 23.8699 11.6572C23.8699 11.248 24.2232 11.0592 24.6394 10.9927ZM25.1186 13.9061C25.6957 14.1579 25.8251 14.4132 25.8251 14.7595C25.8251 15.1407 25.5033 15.487 25.1186 15.522V13.9061ZM24.8633 9.44328C24.7024 9.44328 24.5449 9.53771 24.5449 9.6986V9.95391C23.4222 10.0798 22.6877 10.6814 22.6877 11.7866C22.6877 12.9583 23.6181 13.3046 24.5135 13.6543V15.522C24.0658 15.459 23.6461 15.2352 23.3278 14.9204C23.2544 14.8435 23.1529 14.8085 23.0515 14.8085C22.8976 14.8085 22.7437 14.8924 22.6877 15.0463C22.4639 15.2981 22.4639 15.6479 22.6877 15.8682C23.1424 16.3509 23.7755 16.6307 24.4365 16.6307C24.4715 16.6307 24.51 16.6272 24.5449 16.6272L24.5135 16.6622V16.914C24.5135 17.0399 24.7023 17.1343 24.8317 17.1343C24.9926 17.1343 25.1535 17.0399 25.1535 16.914V16.6272C26.2097 16.5642 27.0072 15.6793 26.9443 14.6336C26.9443 13.5284 26.2378 13.0212 25.185 12.64V10.9927C25.5033 11.0277 25.8251 11.1221 26.0804 11.283C26.1468 11.318 26.2167 11.339 26.2902 11.339C26.4441 11.339 26.591 11.2445 26.6574 11.0906C26.8463 10.8668 26.8183 10.552 26.6224 10.3631C26.2412 10.1008 25.7795 9.94691 25.3109 9.94691C25.2689 9.94691 25.2305 9.95041 25.185 9.95391V9.6986C25.185 9.57269 25.0241 9.44328 24.8633 9.44328Z" fill="#E6EBEF"/>
<path fill-rule="evenodd" clip-rule="evenodd" d="M39.0349 0C34.5511 0 30.8893 3.66188 30.8613 8.20165C30.8613 12.7274 34.5197 16.4348 39.0629 16.4348C39.0804 16.4348 39.1014 16.4348 39.1224 16.4348C43.6027 16.4348 47.2646 12.7764 47.2646 8.23316C47.2961 3.70738 43.6377 0 39.0944 0C39.077 0 39.0559 0 39.0349 0Z" fill="#F9A419"/>
<path fill-rule="evenodd" clip-rule="evenodd" d="M39.0316 2.79801C35.8734 2.79801 33.3411 5.29172 33.3061 8.38003C33.3061 11.4858 35.8733 13.9901 39.0595 13.9901C39.0805 13.9901 39.1015 13.9901 39.1225 13.9901C42.2772 13.9901 44.8129 11.4963 44.8129 8.40804C44.8479 5.30574 42.2808 2.79801 39.0945 2.79801C39.0735 2.79801 39.0526 2.79801 39.0316 2.79801Z" fill="#C07700"/>
<path fill-rule="evenodd" clip-rule="evenodd" d="M39.1259 2.79801C35.9781 2.79801 33.3095 5.22529 33.3095 8.35206C33.3095 11.5278 35.9851 13.9901 39.1469 13.9901C39.5141 13.9901 39.8883 13.9586 40.2661 13.8886C37.531 13.35 35.548 11.0416 35.5829 8.38353C35.5829 5.69394 37.5625 3.41705 40.3011 2.90991C39.9059 2.83297 39.5106 2.79801 39.1259 2.79801Z" fill="#905900"/>
<path fill-rule="evenodd" clip-rule="evenodd" d="M38.9649 6.10656V7.50556C38.3529 7.28172 38.192 7.09288 38.192 6.74313C38.192 6.33042 38.5452 6.16951 38.9649 6.10656ZM39.4477 8.99901C40.0597 9.25083 40.1576 9.53765 40.1576 9.85593C40.1576 10.2721 39.8674 10.5869 39.4477 10.6219V8.99901ZM39.1923 4.55018C39.028 4.55018 38.867 4.64462 38.867 4.77403V5.02934C37.7408 5.18323 37.0308 5.76033 37.0308 6.87254C36.9993 8.0477 37.9332 8.42891 38.867 8.77866V10.6219C38.4158 10.5589 37.9996 10.3351 37.6429 10.0168C37.5694 9.93985 37.4715 9.90485 37.3736 9.90485C37.2232 9.90485 37.0763 9.98881 36.9994 10.1427C36.8035 10.398 36.8035 10.7478 36.9994 11.0031C37.482 11.5102 38.157 11.7621 38.867 11.7621L38.8356 12.0174C38.8356 12.1433 39.0279 12.2412 39.1573 12.2412C39.3182 12.2412 39.5106 12.1433 39.5106 12.0174V11.7341C40.5458 11.6711 41.3502 10.7792 41.3153 9.72998C41.3153 8.55481 40.5109 8.07567 39.5106 7.72941V6.07509C40.1576 6.10657 40.3849 6.42485 40.6402 6.42485C40.8991 6.42485 41.06 6.16953 41.1229 5.94919C41.2209 5.53648 40.9621 5.3441 40.5738 5.18321C40.2206 5.09228 39.8673 5.02934 39.5106 5.02934V4.77403C39.5106 4.64462 39.3532 4.55018 39.1923 4.55018Z" fill="#E6EBEF"/>
<path fill-rule="evenodd" clip-rule="evenodd" d="M12.7861 27.6304L1.32126 31.8623C0.747671 32.0792 0.432844 32.7367 0.653187 33.3033L6.03941 47.5312C6.20729 47.9894 6.62698 48.2622 7.08166 48.2622C7.21806 48.2622 7.35794 48.2412 7.49785 48.1887L18.9627 43.9568L12.7861 27.6304Z" fill="#905900"/>
<path fill-rule="evenodd" clip-rule="evenodd" d="M18.0849 41.6204L17.8646 41.7148L5.67919 46.2336L6.15139 47.5417C6.32276 47.9789 6.76338 48.2657 7.21456 48.2657C7.34397 48.2657 7.4699 48.2412 7.59581 48.1957L18.9627 43.9882L18.0849 41.6204Z" fill="#704500"/>
<path fill-rule="evenodd" clip-rule="evenodd" d="M50.6362 18.1906C49.1918 18.1906 48.0271 19.3343 47.8977 19.4637L38.311 27.3401C38.311 27.3401 38.1816 24.6295 35.3346 24.6295C32.6835 24.619 30.8054 24.598 29.4133 24.598C26.6328 24.598 25.8004 24.682 24.6287 25.1052L18.2702 27.7213L23.0618 40.5711C26.8986 38.9868 26.6608 38.7979 30.4556 38.7979C31.6203 38.7979 33.1697 38.8189 35.3346 38.8189C37.3807 38.7524 39.3322 37.8606 40.7032 36.3287L52.5004 23.7656C52.8501 23.3529 54.6409 20.9956 52.6613 19.0509C51.9723 18.4144 51.2763 18.1906 50.6362 18.1906Z" fill="#905900"/>
<path fill-rule="evenodd" clip-rule="evenodd" d="M20.8234 26.5811L18.2702 27.6128L23.0863 40.5676L25.608 39.5079L20.8234 26.5811Z" fill="#905900"/>
<path fill-rule="evenodd" clip-rule="evenodd" d="M36.3454 24.8323C36.5902 25.9795 36.8071 27.9871 36.0971 29.0329C35.6669 29.6694 35.0898 29.8058 33.5649 29.8058C32.5681 29.8058 31.1656 29.7464 29.1406 29.7359C28.0598 29.7359 28.0598 31.4216 29.1406 31.4216C30.8648 31.4216 32.2149 31.4741 33.2956 31.4741C35.464 31.4741 36.5623 31.2608 37.4262 29.9877C37.9228 29.1937 38.1711 28.2704 38.1991 27.347C38.1711 26.9973 37.9228 25.3395 36.3454 24.8323Z" fill="#704500"/>
<path fill-rule="evenodd" clip-rule="evenodd" d="M23.0759 39.5254C22.95 39.6863 22.7926 39.8122 22.6002 39.8751L17.9171 41.6344L18.7984 44.0687L23.0759 42.4668C23.576 42.243 23.8593 41.6694 23.674 41.1553L23.0759 39.5254Z" fill="#704500"/>
</svg>
