<svg width="75" height="75" viewBox="0 0 75 75" fill="none" xmlns="http://www.w3.org/2000/svg">
<circle cx="37.5" cy="37.5" r="37.5" fill="black" fill-opacity="0.1"/>
<path fill-rule="evenodd" clip-rule="evenodd" d="M32.7942 37.6791L28.2461 39.6864L26.3833 43.1452L32.491 44.0895L38.5987 43.1452L36.7386 39.6864L32.7942 37.6791Z" fill="#156738"/>
<path fill-rule="evenodd" clip-rule="evenodd" d="M18.6666 16C17.202 16 16 17.2136 16 18.71V37.1243C16 38.6207 17.202 39.8169 18.6666 39.8169H46.6203C48.0821 39.8169 49.2841 38.6207 49.2841 37.1243V18.71C49.2841 17.2136 48.0821 16 46.6203 16H18.6666Z" fill="#1A8246"/>
<path fill-rule="evenodd" clip-rule="evenodd" d="M25.5011 43.1794C24.2457 43.1794 24.2457 45.3138 25.5011 45.3138C25.5186 45.3138 25.539 45.3138 25.5595 45.3104H39.7311C39.7485 45.3138 39.7687 45.3138 39.7891 45.3138C41.0418 45.3138 41.0418 43.1794 39.7891 43.1794C39.7687 43.1794 39.7485 43.1794 39.7311 43.1794H25.5595C25.539 43.1794 25.5186 43.1794 25.5011 43.1794Z" fill="#156738"/>
<path fill-rule="evenodd" clip-rule="evenodd" d="M19.7166 18.1374C18.5128 18.1374 17.5288 19.114 17.5288 20.3154V33.3635C17.5288 34.5619 18.4926 35.5415 19.7166 35.5415H45.2836C46.4902 35.5415 47.4537 34.5619 47.4537 33.3635V20.2952C47.4537 19.114 46.4698 18.1374 45.2836 18.1374H19.7166Z" fill="white"/>
<path fill-rule="evenodd" clip-rule="evenodd" d="M45.4494 18.3879C46.4138 18.3879 47.1989 19.1709 47.1989 20.1533V33.2405C47.1989 34.2028 46.4138 34.9831 45.4494 34.9831H19.8542C18.8694 34.9831 18.0845 34.2028 18.0845 33.2405V20.1533C18.0845 19.1913 18.8694 18.408 19.8542 18.408L45.4494 18.3879ZM19.8542 17.5267C18.4058 17.5267 17.2212 18.7085 17.2212 20.1533V33.2405C17.2212 34.6826 18.3856 35.847 19.8542 35.847H45.4494C46.8975 35.847 48.0622 34.6826 48.0622 33.2405V20.1331C48.0622 18.7085 46.8773 17.5267 45.4494 17.5267H19.8542Z" fill="#156738"/>
<path fill-rule="evenodd" clip-rule="evenodd" d="M31.6649 31.5716C30.0952 31.5716 28.8297 32.8527 28.8498 34.4129V53.5592H56.3085V34.4129C56.3085 32.8411 55.0225 31.5716 53.4556 31.5716H31.7024C31.6881 31.5716 31.6765 31.5716 31.6649 31.5716Z" fill="#29C65F"/>
<path fill-rule="evenodd" clip-rule="evenodd" d="M32.2903 34.0176C31.5659 34.0176 30.9634 34.622 30.9634 35.3451V48.8868C30.9634 49.613 31.5659 50.1972 32.2903 50.1972H53.1511C53.8754 50.1972 54.4578 49.613 54.4578 48.8868V35.3451C54.478 34.622 53.8754 34.0176 53.1511 34.0176H32.2903Z" fill="white"/>
<path fill-rule="evenodd" clip-rule="evenodd" d="M32.3919 33.7123C31.4364 33.7123 30.6616 34.485 30.6616 35.4378V48.7598C30.6616 49.73 31.4364 50.5054 32.3919 50.5054H43.198C43.7776 50.5054 43.7776 49.6525 43.198 49.6525H32.3919C31.9155 49.6525 31.5167 49.2549 31.5167 48.7769V35.4378C31.5167 34.9629 31.9155 34.565 32.3919 34.565H53.0512C53.5276 34.565 53.9264 34.9629 53.9264 35.4378V48.7598C53.9264 49.2347 53.5276 49.6326 53.0512 49.6326H51.298C50.7211 49.6326 50.7211 50.4856 51.298 50.4856H53.0512C54.0067 50.4856 54.7815 49.73 54.7815 48.7769V35.4378C54.7815 34.485 54.0067 33.7123 53.0512 33.7123H32.3919Z" fill="#156738"/>
<path fill-rule="evenodd" clip-rule="evenodd" d="M29.1348 51.4214V54.1668H56.3082V51.4214H29.1348Z" fill="#156738"/>
<path fill-rule="evenodd" clip-rule="evenodd" d="M27.413 52.0323C27.0099 52.0323 26.688 52.3716 26.688 52.7964C26.688 54.0683 27.6738 55.0861 28.88 55.0861H56.276C57.4823 55.0861 58.4479 54.0683 58.4479 52.7964C58.4479 52.3716 58.1261 52.0323 57.7434 52.0323H27.413Z" fill="#29C65F"/>
<path fill-rule="evenodd" clip-rule="evenodd" d="M28.1546 43.1794C28.1344 43.1794 28.1173 43.1794 28.0968 43.1794H28.2126C28.1921 43.1794 28.175 43.1794 28.1546 43.1794ZM25.4925 43.1794C24.2453 43.1794 24.2453 45.3138 25.4925 45.3138C25.5099 45.3138 25.5301 45.3138 25.5502 45.3104H28.0968C26.9104 45.249 26.9104 43.2439 28.0968 43.1794H25.5502C25.5301 43.1794 25.5099 43.1794 25.4925 43.1794ZM28.0968 45.3104C28.1173 45.3138 28.1344 45.3138 28.1546 45.3138C28.175 45.3138 28.1921 45.3138 28.2126 45.3104H28.0968Z" fill="#156738"/>
<path fill-rule="evenodd" clip-rule="evenodd" d="M18.4999 16C17.1269 16 16 17.2136 16 18.71V37.1243C16 38.6207 17.1269 39.8169 18.4999 39.8169H19.6646C18.2724 39.8169 17.1647 38.6207 17.1647 37.1243V18.71C17.1647 17.234 18.2562 16.0202 19.6457 16H18.4999Z" fill="#156738"/>
<path fill-rule="evenodd" clip-rule="evenodd" d="M31.8059 31.5716C30.3159 31.5716 29.1338 32.8527 29.1338 34.4129V53.5592H30.0851V34.4129C30.0851 32.8411 31.2865 31.5716 32.7929 31.5716H31.8416C31.8279 31.5716 31.8169 31.5716 31.8059 31.5716Z" fill="#156738"/>
<path fill-rule="evenodd" clip-rule="evenodd" d="M27.6994 52.0323C27.3158 52.0323 26.9937 52.3716 26.9937 52.775C26.9937 54.0344 27.9434 55.0647 29.1338 55.0647C29.1457 55.0647 29.1573 55.0647 29.1689 55.0647H32.497C31.4281 54.9118 30.6005 53.9611 30.6005 52.7964C30.6005 52.3716 30.9227 52.0323 31.3264 52.0323H27.6994ZM32.497 55.0647C32.5926 55.08 32.6943 55.0861 32.796 55.0861V55.0647H32.497Z" fill="#156738"/>
<path fill-rule="evenodd" clip-rule="evenodd" d="M44.4756 46.8438C43.7484 46.8438 43.1792 47.4179 43.1792 48.1578V57.4366C43.1792 58.1735 43.7484 58.7507 44.4756 58.7507H50.1252C50.8349 58.7507 51.4215 58.1735 51.4215 57.4366V48.1578C51.4215 47.4179 50.8349 46.8438 50.1252 46.8438H44.4756Z" fill="#156738"/>
<path fill-rule="evenodd" clip-rule="evenodd" d="M44.4664 46.8438C43.7649 46.8438 43.1792 47.4179 43.1792 48.1548V57.4366C43.1792 58.1527 43.7649 58.7507 44.4664 58.7507H45.0115C44.307 58.7507 43.7243 58.1527 43.7243 57.4366V48.1548C43.7243 47.4179 44.307 46.8438 45.0115 46.8438H44.4664Z" fill="#156738"/>
<path fill-rule="evenodd" clip-rule="evenodd" d="M44.3326 48.3676C43.7063 48.3676 43.1792 48.8678 43.1792 49.4862V56.1051C43.1792 56.7263 43.7063 57.2238 44.3326 57.2238H50.2916C50.9179 57.2238 51.4215 56.7263 51.4215 56.1051V49.4862C51.4215 48.8678 50.9179 48.3676 50.2916 48.3676H44.3326Z" fill="white"/>
<path fill-rule="evenodd" clip-rule="evenodd" d="M43.79 48.6757C43.4293 48.8101 43.2018 49.1008 43.1792 49.4306V56.1412C43.2018 56.471 43.4293 56.7617 43.79 56.9156V48.6757Z" fill="#41B06E"/>
</svg>
