<svg width="75" height="75" viewBox="0 0 75 75" fill="none" xmlns="http://www.w3.org/2000/svg">
<circle cx="37.5" cy="37.5" r="37.5" fill="black" fill-opacity="0.1"/>
<path fill-rule="evenodd" clip-rule="evenodd" d="M25.0447 40.1189C24.9377 40.1189 24.8246 40.1497 24.7114 40.2206V40.1929L22.2815 41.6696C21.6538 42.018 22.0019 42.8905 22.5728 42.8905C22.6801 42.8905 22.7929 42.8627 22.9088 42.7918L25.3422 41.3459C25.9668 40.9729 25.6009 40.1189 25.0447 40.1189Z" fill="#29C65F"/>
<path fill-rule="evenodd" clip-rule="evenodd" d="M48.789 40.4272C48.2272 40.4272 47.8591 41.2966 48.4859 41.6697L50.9424 43.1002C51.0524 43.1711 51.1622 43.1988 51.2661 43.1988C51.8189 43.1988 52.1722 42.3356 51.5691 41.9903L49.1127 40.529C49.0026 40.4581 48.8898 40.4272 48.789 40.4272Z" fill="#29C65F"/>
<path fill-rule="evenodd" clip-rule="evenodd" d="M37.065 17C36.7305 17 36.4512 17.2775 36.4512 17.6135V20.3758C36.4512 20.7951 36.7567 21.0047 37.065 21.0047C37.3733 21.0047 37.6816 20.7951 37.6816 20.3758V17.6135C37.6816 17.2775 37.4023 17 37.065 17Z" fill="#29C65F"/>
<path fill-rule="evenodd" clip-rule="evenodd" d="M28.9768 19.1581C28.5461 19.1581 28.1274 19.6082 28.4005 20.1138L29.8292 22.5216C29.954 22.7528 30.1529 22.8514 30.3521 22.8514C30.7797 22.8514 31.2073 22.4013 30.9131 21.8957L29.5144 19.4879C29.3778 19.2567 29.1759 19.1581 28.9768 19.1581Z" fill="#29C65F"/>
<path fill-rule="evenodd" clip-rule="evenodd" d="M22.8799 25.324C22.3095 25.324 21.9618 26.0947 22.5885 26.403L25.0157 27.7071C25.1285 27.7626 25.2383 27.7872 25.3394 27.7872C25.9156 27.7872 26.2751 27.0227 25.6452 26.6897L23.2156 25.4103C23.0997 25.3517 22.9868 25.324 22.8799 25.324Z" fill="#29C65F"/>
<path fill-rule="evenodd" clip-rule="evenodd" d="M20.5979 33.3396C19.8007 33.3396 19.8007 34.5666 20.5979 34.5666H23.1962C23.5409 34.5666 23.8057 34.2891 23.8057 33.9531C23.8057 33.6171 23.5409 33.3396 23.1962 33.3396H20.5979Z" fill="#29C65F"/>
<path fill-rule="evenodd" clip-rule="evenodd" d="M50.5834 33.6479C49.7079 33.6726 49.7079 34.875 50.5834 34.875H53.478C54.3261 34.875 54.3261 33.6479 53.478 33.6479H50.5834Z" fill="#29C65F"/>
<path fill-rule="evenodd" clip-rule="evenodd" d="M51.3041 25.324C51.206 25.324 51.0972 25.3548 50.9881 25.4226L48.703 26.8593C48.1659 27.2138 48.3787 28.0924 48.9996 28.0924C49.1056 28.0924 49.1867 28.0647 49.2931 28.003L51.5809 26.5386C52.171 26.1903 51.8411 25.324 51.3041 25.324Z" fill="#29C65F"/>
<path fill-rule="evenodd" clip-rule="evenodd" d="M45.3382 19.4634C45.1322 19.4634 44.9346 19.5774 44.8261 19.7717L43.4875 22.2072C43.2316 22.7097 43.6268 23.1598 44.0276 23.1598C44.2166 23.1598 44.4059 23.0643 44.5313 22.83L45.8419 20.4222C46.0034 20.1108 45.9227 19.7131 45.6304 19.5466C45.5358 19.4911 45.4356 19.4634 45.3382 19.4634Z" fill="#29C65F"/>
<path fill-rule="evenodd" clip-rule="evenodd" d="M37.0662 23.7794C32.8891 23.7794 29.1251 26.3352 27.5648 30.2351C25.9697 34.2182 27.0324 38.7594 30.1964 41.6512C31.454 42.8011 32.1553 44.4536 32.1553 46.1646V52.5617C32.1553 53.5144 32.9094 54.3005 33.8904 54.3005H40.2447C41.2229 54.3005 42.0087 53.5144 42.0087 52.5617V46.1369C42.0087 44.3981 42.7363 42.7457 44.0231 41.5957C50.3222 35.7628 47.1289 25.213 38.6496 23.8966C38.2013 23.8411 37.753 23.7825 37.3338 23.7825C37.2437 23.7825 37.1534 23.7794 37.0662 23.7794Z" fill="#FFF1DB"/>
<path fill-rule="evenodd" clip-rule="evenodd" d="M38.6206 23.7825C30.0888 25.1051 26.8909 35.7751 33.3161 41.6019C34.5502 42.758 35.2796 44.4166 35.2534 46.1338V52.5555C35.2534 53.5112 36.0383 54.3005 37.0218 54.3005H40.2197C41.2001 54.3005 41.9877 53.5112 41.9877 52.5555V46.106C41.9877 44.3611 42.7172 42.7025 44.0071 41.5464C50.3212 35.6919 47.1202 25.1051 38.6206 23.7825Z" fill="#FFDDA5"/>
<path fill-rule="evenodd" clip-rule="evenodd" d="M33.49 31.4805C34.1368 31.4805 34.6723 32.0077 34.6723 32.652V33.8482H33.3494C31.7454 33.8482 31.7454 31.4805 33.3494 31.4805H33.49ZM40.8077 31.4805C42.3852 31.4805 42.3852 33.8482 40.8077 33.8482H39.4583V32.652C39.4583 32.0077 39.991 31.4805 40.6378 31.4805H40.8077ZM33.3494 30.2566C31.9969 30.2566 30.8994 31.3418 30.8994 32.6798C30.8994 33.9869 31.9969 35.0752 33.3494 35.0752H34.6723V40.0881C34.6723 40.492 34.9828 40.6954 35.2901 40.6954C35.6003 40.6954 35.9104 40.492 35.9104 40.0881V35.0752H38.2202V47.5272C38.2202 47.9311 38.5272 48.1346 38.8377 48.1346C39.1478 48.1346 39.4583 47.9311 39.4583 47.5272V35.0752H40.8077C42.1598 35.0752 43.2281 33.9869 43.2281 32.6798C43.2281 31.3418 42.1598 30.2566 40.8077 30.2566H40.6378C39.3177 30.2566 38.2202 31.3418 38.2202 32.652V33.8482H35.9104V32.652C35.9104 31.3418 34.8129 30.2566 33.4607 30.2566H33.3494Z" fill="#156738"/>
<path fill-rule="evenodd" clip-rule="evenodd" d="M35.2151 41.9718C34.8806 41.9718 34.6016 42.2492 34.6016 42.6069V47.5087C34.6016 47.9249 34.9099 48.1315 35.2151 48.1315C35.5234 48.1315 35.8317 47.9249 35.8317 47.5087V42.6069C35.8317 42.2492 35.5523 41.9718 35.2151 41.9718Z" fill="#156738"/>
<path fill-rule="evenodd" clip-rule="evenodd" d="M34.6016 43.5133V47.5026C34.6016 47.8294 34.8627 48.1038 35.2151 48.1315V46.1369C35.2151 45.2367 35.0116 44.3303 34.6016 43.5133Z" fill="#156738"/>
<path fill-rule="evenodd" clip-rule="evenodd" d="M33.9844 53.9952V54.7721C33.9844 56.5541 35.4349 58 37.2187 58C39.0056 58 40.4558 56.5541 40.4558 54.7721V53.9952H33.9844Z" fill="#156738"/>
<path fill-rule="evenodd" clip-rule="evenodd" d="M32.1318 46.2848V50.2926H41.9972V46.2848H32.1318Z" fill="#41B06E"/>
<path fill-rule="evenodd" clip-rule="evenodd" d="M32.1348 50.2958V52.4847C32.1348 53.4928 32.8895 54.2974 33.8714 54.2974H40.2318C41.2106 54.2974 41.9974 53.4928 41.9974 52.4847V50.2958H32.1348Z" fill="#156738"/>
<path fill-rule="evenodd" clip-rule="evenodd" d="M37.0645 53.9954V54.7353C37.0645 55.8205 37.7088 56.8532 38.7601 57.3835C39.7842 56.8286 40.4252 55.8205 40.4557 54.7353V53.9954H37.0645Z" fill="#41B06E"/>
<path fill-rule="evenodd" clip-rule="evenodd" d="M35.2188 46.2848V50.2926H41.9981V46.2848H35.2188Z" fill="#29C65F"/>
<path fill-rule="evenodd" clip-rule="evenodd" d="M35.2188 50.2958V52.4847C35.2188 53.4928 36.0089 54.2974 36.9988 54.2974H40.218C41.2052 54.2974 41.9981 53.4928 41.9981 52.4847V50.2958H35.2188Z" fill="#41B06E"/>
</svg>
