<svg width="75" height="75" viewBox="0 0 75 75" fill="none" xmlns="http://www.w3.org/2000/svg">
<circle cx="37.5" cy="37.5" r="37.5" fill="black" fill-opacity="0.1"/>
<path fill-rule="evenodd" clip-rule="evenodd" d="M21.6613 18.6096C21.2645 18.6096 21 18.9193 21 19.2742V56.9773C21 57.329 21.2645 57.6387 21.6613 57.6387H49.6935C50.0451 57.6387 50.3516 57.329 50.3516 56.9773V25.4548L43.5419 18.6096H21.6613Z" fill="white"/>
<path fill-rule="evenodd" clip-rule="evenodd" d="M47.7744 22.8065V57.6388H49.7099C50.0518 57.6388 50.3518 57.3291 50.3518 56.9775V25.4549L47.7744 22.8065Z" fill="#27B262"/>
<path fill-rule="evenodd" clip-rule="evenodd" d="M43.5835 18.6096L43.6254 24.6838C43.6254 25.0322 43.9319 25.3386 44.2835 25.3386L50.3512 25.3838L43.5835 18.6096Z" fill="#27B262"/>
<path fill-rule="evenodd" clip-rule="evenodd" d="M31.194 28.2871C30.3585 28.2871 30.3585 29.5742 31.194 29.5742H45.9682C46.8037 29.5742 46.8037 28.2871 45.9682 28.2871H31.194Z" fill="#27B262"/>
<path fill-rule="evenodd" clip-rule="evenodd" d="M31.194 30.5452C30.3585 30.5452 30.3585 31.8355 31.194 31.8355H45.9682C46.8037 31.8355 46.8037 30.5452 45.9682 30.5452H31.194Z" fill="#27B262"/>
<path fill-rule="evenodd" clip-rule="evenodd" d="M25.2582 28.2903C24.8808 28.2903 24.5969 28.5967 24.5969 28.9451V31.1774C24.5518 31.529 24.8808 31.8354 25.2582 31.8354H27.6647C28.0905 31.8354 28.4195 31.529 28.4195 31.1774V28.9451C28.4195 28.5967 28.0905 28.2903 27.7098 28.2903H25.2582Z" fill="#156738"/>
<path fill-rule="evenodd" clip-rule="evenodd" d="M31.194 38.2871C30.3585 38.2871 30.3585 39.5742 31.194 39.5742H45.9682C46.8037 39.5742 46.8037 38.2871 45.9682 38.2871H31.194Z" fill="#27B262"/>
<path fill-rule="evenodd" clip-rule="evenodd" d="M31.194 40.8677C30.3585 40.8677 30.3585 41.8354 31.194 41.8354H45.9682C46.8037 41.8354 46.8037 40.8677 45.9682 40.8677H31.194Z" fill="#27B262"/>
<path fill-rule="evenodd" clip-rule="evenodd" d="M25.2582 38.2902C24.8808 38.2902 24.5969 38.5966 24.5969 38.945V41.1772C24.5518 41.5289 24.8808 41.8353 25.2582 41.8353H27.6647C28.0905 41.8353 28.4195 41.5289 28.4195 41.1772V38.945C28.4195 38.5966 28.0905 38.2902 27.7098 38.2902H25.2582Z" fill="#156738"/>
<path fill-rule="evenodd" clip-rule="evenodd" d="M31.194 48.6096C30.3585 48.6096 30.3585 49.5774 31.194 49.5774H45.9682C46.8037 49.5774 46.8037 48.6451 45.9682 48.6096H31.194Z" fill="#27B262"/>
<path fill-rule="evenodd" clip-rule="evenodd" d="M31.194 50.8676C30.3585 50.8676 30.3585 52.1546 31.194 52.1546H45.9682C46.8037 52.1546 46.8037 50.8676 45.9682 50.8676H31.194Z" fill="#27B262"/>
<path fill-rule="evenodd" clip-rule="evenodd" d="M25.2582 48.6128C24.8808 48.6128 24.5969 48.9193 24.5969 49.2676V51.4999C24.5518 51.8483 24.8808 52.1547 25.2582 52.1547H27.6647C28.0905 52.1547 28.4195 51.8483 28.4195 51.4999V49.2676C28.4195 48.9193 28.0905 48.6128 27.7098 48.6128H25.2582Z" fill="#156738"/>
<path fill-rule="evenodd" clip-rule="evenodd" d="M34.5294 17C34.1714 17 33.9037 17.3097 33.9488 17.7064L34.2617 20.6613C34.3069 20.971 34.5746 21.1903 34.8875 21.1903H37.4359C37.7488 21.1903 38.0133 20.971 38.0617 20.6613L38.3746 17.7064C38.4166 17.3097 38.1521 17 37.7908 17H34.5294Z" fill="#27B262"/>
<path fill-rule="evenodd" clip-rule="evenodd" d="M44.6138 44.4193C44.2235 44.4193 43.9074 44.8516 44.0525 45.2548L47.4396 54.6483C47.5525 54.9193 47.8009 55.0612 48.0461 55.0612C48.2719 55.0612 48.5009 54.9419 48.6268 54.6903L49.7719 52.2999L53.3332 55.8677C53.4622 55.9741 53.6268 56.029 53.7913 56.029C53.959 56.029 54.1235 55.9741 54.2558 55.8677L55.5752 54.5161C55.8397 54.258 55.8397 53.8645 55.5752 53.6483L52.0138 50.0806L54.4332 48.9935C54.9171 48.7322 54.8719 47.9935 54.3429 47.8193L44.8461 44.4709C44.7655 44.4355 44.6912 44.4193 44.6138 44.4193Z" fill="#106E38"/>
</svg>
