<svg width="75" height="75" viewBox="0 0 75 75" fill="none" xmlns="http://www.w3.org/2000/svg">
<circle cx="37.5" cy="37.5" r="37.5" fill="black" fill-opacity="0.1"/>
<path fill-rule="evenodd" clip-rule="evenodd" d="M52.7432 51.3798L53.5158 56.9542C53.6041 57.6493 54.1908 58 54.7837 58C55.3703 58 55.9664 57.6493 56.0705 56.9542L56.8432 51.3798H52.7432Z" fill="#156738"/>
<path fill-rule="evenodd" clip-rule="evenodd" d="M54.6357 51.3798V57.9972C55.3107 57.971 55.9162 57.5247 56.014 56.9419L56.8434 51.3798H54.6357Z" fill="#156738"/>
<path fill-rule="evenodd" clip-rule="evenodd" d="M28.0373 17L19 26.0739V57.3421C19 57.713 19.3097 58 19.6525 58H48.6178C48.9868 58 49.2738 57.713 49.2738 57.3421V17.6551C49.2738 17.2842 48.9615 17 48.5925 17H28.0373Z" fill="white"/>
<path fill-rule="evenodd" clip-rule="evenodd" d="M27.9399 17L19 26.2398V27.7199H28.7271C29.0923 27.7199 29.402 27.4307 29.402 27.0532V17H27.9399Z" fill="#29C65F"/>
<path fill-rule="evenodd" clip-rule="evenodd" d="M46.5709 17V55.2038H19V57.3421C19 57.713 19.3097 58 19.6793 58H48.5925C48.9615 58 49.2738 57.713 49.2738 57.3421V17.6551C49.2738 17.2842 48.9615 17 48.5925 17H46.5709Z" fill="#29C65F"/>
<path fill-rule="evenodd" clip-rule="evenodd" d="M27.8251 17L19 26.1461H27.1877C27.5485 26.1461 27.8251 25.8295 27.8251 25.4829V17Z" fill="#156738"/>
<path fill-rule="evenodd" clip-rule="evenodd" d="M25.4404 45.0724C24.6774 45.1292 24.6774 46.2709 25.4404 46.3277H42.5159C43.2791 46.2709 43.2791 45.1292 42.5159 45.0724H25.4404Z" fill="#156738"/>
<path fill-rule="evenodd" clip-rule="evenodd" d="M33.9586 52.6416C33.1922 52.6984 33.1922 53.8129 33.9586 53.8968H42.5118C43.2782 53.8129 43.2782 52.6984 42.5118 52.6416H33.9586Z" fill="#156738"/>
<path fill-rule="evenodd" clip-rule="evenodd" d="M25.4404 41.9153C24.6774 41.9724 24.6774 43.0898 25.4404 43.1768H42.5159C43.2791 43.0898 43.2791 41.9724 42.5159 41.9153H25.4404Z" fill="#156738"/>
<path fill-rule="evenodd" clip-rule="evenodd" d="M25.4404 38.7646C24.6774 38.8214 24.6774 39.9631 25.4404 40.023H42.5159C43.2791 39.9631 43.2791 38.8214 42.5159 38.7646H25.4404Z" fill="#156738"/>
<path fill-rule="evenodd" clip-rule="evenodd" d="M25.4875 35.6106C24.6747 35.6106 24.6747 36.8693 25.4875 36.8693C25.5055 36.8693 25.5234 36.8693 25.5411 36.8661H42.7305C42.7494 36.8693 42.7684 36.8693 42.7841 36.8693C43.5978 36.8693 43.5978 35.6106 42.7841 35.6106C42.7684 35.6106 42.7494 35.6106 42.7305 35.6106H25.5411C25.5234 35.6106 25.5055 35.6106 25.4875 35.6106Z" fill="#156738"/>
<path fill-rule="evenodd" clip-rule="evenodd" d="M32.7946 26.4643C31.9304 26.4643 31.9304 27.6934 32.7946 27.6934C32.8167 27.6934 32.8356 27.6934 32.8545 27.6902H33.4285V32.7868C33.4285 33.1227 33.7313 33.3999 34.0971 33.3999C34.4598 33.3999 34.7658 33.1227 34.7658 32.7868V27.0774C34.7658 26.7447 34.4598 26.4643 34.0971 26.4643H32.8545C32.8356 26.4643 32.8167 26.4643 32.7946 26.4643Z" fill="#156738"/>
<path fill-rule="evenodd" clip-rule="evenodd" d="M32.7169 32.457C31.9285 32.457 31.9379 33.7154 32.739 33.7154C32.7579 33.7154 32.7737 33.7153 32.7958 33.7122H35.1927C35.2085 33.7153 35.2242 33.7154 35.24 33.7154C36.019 33.7154 36.0253 32.457 35.2652 32.457C35.24 32.457 35.2148 32.457 35.1927 32.4598H32.7958C32.7642 32.457 32.739 32.457 32.7169 32.457Z" fill="#156738"/>
<path fill-rule="evenodd" clip-rule="evenodd" d="M33.8265 23.9385C33.5931 23.9385 33.3566 24.0432 33.1642 24.2759C32.5586 24.9512 33.0002 26.1427 33.8265 26.1427C34.3532 26.1427 34.7663 25.6296 34.7663 25.0489C34.7663 24.3772 34.3027 23.9385 33.8265 23.9385Z" fill="#156738"/>
<path fill-rule="evenodd" clip-rule="evenodd" d="M52.7432 26.4643V52.6355H56.8432V26.4643H52.7432Z" fill="#A9FFC7"/>
<path fill-rule="evenodd" clip-rule="evenodd" d="M54.6357 26.4643V52.6355H56.8434V26.4643H54.6357Z" fill="white"/>
<path fill-rule="evenodd" clip-rule="evenodd" d="M52.7432 22.6801V27.4077H56.8432V22.6801H52.7432Z" fill="#156738"/>
<path fill-rule="evenodd" clip-rule="evenodd" d="M54.6357 22.6801V27.4077H56.8434V22.6801H54.6357Z" fill="#156738"/>
<path fill-rule="evenodd" clip-rule="evenodd" d="M54.7932 17C53.6641 17 52.7432 17.8806 52.7432 18.9579V22.6769H56.8432V18.9579C56.8432 17.8806 55.9222 17 54.7932 17Z" fill="#156738"/>
<path fill-rule="evenodd" clip-rule="evenodd" d="M54.6357 17V22.6769H56.8434V18.9579C56.8434 17.8806 55.8531 17 54.6357 17Z" fill="#156738"/>
</svg>
