<svg width="75" height="75" viewBox="0 0 75 75" fill="none" xmlns="http://www.w3.org/2000/svg">
<circle cx="37.5" cy="37.5" r="37.5" fill="black" fill-opacity="0.1"/>
<path fill-rule="evenodd" clip-rule="evenodd" d="M38.576 18C36.3797 18 34.1722 18.5481 32.1656 19.6635C27.3131 22.3639 24.6598 27.8209 25.5989 33.3031L23.1603 40.4734C22.5441 42.2116 23.7762 44.0836 25.6241 44.1892H26.6972C26.9925 44.1892 27.2321 44.4311 27.2321 44.7511V49.7268C27.2321 51.1981 28.4393 52.3997 29.9136 52.3997L33.7179 51.7574C33.7487 51.7545 33.7792 51.7518 33.8071 51.7518C34.1165 51.7518 34.362 52.002 34.362 52.319V56.1994C34.362 56.6275 34.7382 57 35.1925 57H47.3892C47.8435 57 48.2198 56.651 48.2198 56.1994V43.2797C48.2198 42.4509 48.3257 41.5943 48.5403 40.7933C48.7826 39.9895 49.131 39.2161 49.5853 38.4929C50.2572 37.45 50.7642 36.2986 51.1405 35.0971V35.0692C52.7488 29.9348 51.0598 24.3444 46.8789 20.9483C44.4793 18.9986 41.5387 18 38.576 18Z" fill="#2EC56E"/>
<path fill-rule="evenodd" clip-rule="evenodd" d="M36.4902 42.9257V43.3923C36.4902 44.4862 37.3988 45.2693 38.3939 45.2693C38.7095 45.2693 39.0356 45.1889 39.3429 45.0144H39.3673C39.9389 44.6792 40.3028 44.0627 40.3028 43.4164V42.9527V42.9257H36.4902Z" fill="white"/>
<path fill-rule="evenodd" clip-rule="evenodd" d="M38.432 24.7427C32.7694 24.7427 30.0417 31.7238 34.2689 35.549C35.0227 36.2461 35.4526 37.2385 35.4526 38.2841V42.1708C35.4526 42.4383 35.5588 42.7087 35.7459 42.9234C35.8016 42.9486 35.8268 42.9765 35.8799 43.0017L35.9608 43.0574C36.1227 43.1633 36.3098 43.2164 36.4999 43.2164H40.3641C40.579 43.2164 40.7691 43.1633 40.928 43.0574L41.009 43.0017C41.0621 42.9765 41.0899 42.9486 41.1181 42.9234C41.3331 42.7087 41.4389 42.4383 41.4389 42.1708V38.2562C41.4389 37.2107 41.8941 36.2212 42.6733 35.5241C46.4595 32.0361 44.6081 25.738 39.5321 24.8263L39.398 24.7984C39.13 24.7732 38.8619 24.7453 38.5939 24.7453C38.5382 24.7427 38.4851 24.7427 38.432 24.7427Z" fill="white"/>
<path fill-rule="evenodd" clip-rule="evenodd" d="M31.2432 34.7167C31.1564 34.7167 31.0643 34.7363 30.969 34.7833L29.5141 35.61C28.8651 35.9209 29.2035 36.7643 29.7519 36.7643C29.864 36.7643 29.9842 36.7309 30.1074 36.6505L31.5594 35.8238C32.0911 35.4575 31.7694 34.7167 31.2432 34.7167Z" fill="white"/>
<path fill-rule="evenodd" clip-rule="evenodd" d="M45.3065 34.7141C44.7669 34.7141 44.412 35.5613 45.0605 35.8725L46.5113 36.7004C46.6063 36.7447 46.6987 36.7643 46.7881 36.7643C47.3137 36.7643 47.6325 36.0279 47.104 35.6836L45.6502 34.8308C45.5329 34.7501 45.4156 34.7141 45.3065 34.7141Z" fill="white"/>
<path fill-rule="evenodd" clip-rule="evenodd" d="M38.5301 20.6398C38.2192 20.6398 37.957 20.9175 37.957 21.253V23.0027C37.984 23.3787 38.2626 23.5666 38.5436 23.5666C38.8219 23.5666 39.1032 23.3787 39.1275 23.0027V21.253C39.1275 20.9175 38.8679 20.6398 38.5301 20.6398Z" fill="white"/>
<path fill-rule="evenodd" clip-rule="evenodd" d="M33.462 21.8129C33.0702 21.8129 32.6784 22.31 32.9872 22.8338L33.7605 24.3729C33.8696 24.633 34.0512 24.7397 34.233 24.7397C34.6248 24.7397 35.0219 24.2424 34.7339 23.7186L33.9345 22.1797C33.823 21.9193 33.6438 21.8129 33.462 21.8129Z" fill="white"/>
<path fill-rule="evenodd" clip-rule="evenodd" d="M29.7659 25.6249C29.2192 25.6249 28.8682 26.2756 29.4148 26.5974L30.9343 27.3238C31.0293 27.3628 31.1214 27.3798 31.2106 27.3798C31.7402 27.3798 32.0913 26.734 31.5443 26.4317L30.051 25.6835C29.953 25.6419 29.855 25.6249 29.7659 25.6249Z" fill="white"/>
<path fill-rule="evenodd" clip-rule="evenodd" d="M28.3997 30.6082C27.6923 30.6624 27.6923 31.7027 28.3997 31.7813H30.0482C30.3611 31.7813 30.6224 31.5211 30.6224 31.1824C30.6224 30.8683 30.3611 30.6082 30.0482 30.6082H28.3997Z" fill="white"/>
<path fill-rule="evenodd" clip-rule="evenodd" d="M46.6421 30.6108C45.8784 30.6625 45.8784 31.703 46.6421 31.7813H48.363C49.1015 31.703 49.1015 30.6625 48.363 30.6108H46.6421Z" fill="white"/>
<path fill-rule="evenodd" clip-rule="evenodd" d="M47.0398 25.6251C46.928 25.6251 46.8107 25.6615 46.6908 25.7424L45.2411 26.5736C44.7021 26.8692 44.917 27.6754 45.5344 27.6754C45.6432 27.6754 45.7493 27.6476 45.8303 27.5945L47.2799 26.7633C47.9281 26.451 47.5762 25.6251 47.0398 25.6251Z" fill="white"/>
<path fill-rule="evenodd" clip-rule="evenodd" d="M43.4564 22.1032C43.2494 22.1032 43.0561 22.2094 42.9485 22.3862L42.0983 23.7983C41.7725 24.2828 42.2004 24.7401 42.6256 24.7401C42.8215 24.7401 43.0174 24.6421 43.1332 24.4025L43.9559 22.9874C44.116 22.7018 44.036 22.3346 43.7433 22.1765C43.6494 22.1276 43.5529 22.1032 43.4564 22.1032Z" fill="white"/>
</svg>
