<svg width="75" height="75" viewBox="0 0 75 75" fill="none" xmlns="http://www.w3.org/2000/svg">
<circle cx="37.5" cy="37.5" r="37.5" fill="black" fill-opacity="0.1"/>
<path fill-rule="evenodd" clip-rule="evenodd" d="M19.7939 35.2078V48.2449C24.8181 52.2401 30.9701 54.3236 37.1833 54.3236C40.4716 54.3236 43.7789 53.7405 46.9448 52.5491C47.5069 52.3751 48.069 52.1602 48.5851 51.9025C50.7454 50.957 52.7337 49.7086 54.5881 48.2449V35.2078H19.7939Z" fill="#29C65F"/>
<path fill-rule="evenodd" clip-rule="evenodd" d="M19.7939 35.2078V48.1723C22.3137 50.1831 25.1737 51.7664 28.2057 52.7941V35.2078H19.7939Z" fill="#156738"/>
<path fill-rule="evenodd" clip-rule="evenodd" d="M47.8968 37.1196C47.4188 37.1196 46.9447 37.4167 47.0135 38.0108V52.4118C47.6176 52.2401 48.2218 52.0279 48.78 51.7732V38.0108C48.8527 37.4167 48.3747 37.1196 47.8968 37.1196Z" fill="#156738"/>
<path fill-rule="evenodd" clip-rule="evenodd" d="M19.7939 35.2078V36.2803L37.168 42.8511L54.5881 36.2803V35.2078H19.7939Z" fill="#156738"/>
<path fill-rule="evenodd" clip-rule="evenodd" d="M37.1682 18L11 28.023V31.7265L37.1682 41.704L63.3824 31.7265V28.023L37.1682 18Z" fill="#29C65F"/>
<path fill-rule="evenodd" clip-rule="evenodd" d="M11 27.9431V31.6684L37.3824 41.704V38.0223L11 27.9431Z" fill="#156738"/>
<path fill-rule="evenodd" clip-rule="evenodd" d="M37.3824 26.0294C36.6216 26.0294 36.2392 27.1413 37.0422 27.5661L49.9351 33.4455V56.2173C49.9351 56.6521 50.2792 57 50.7074 57C51.1433 57 51.5295 56.6521 51.5295 56.2173V32.9213C51.4874 32.617 51.3154 32.3126 51.0554 32.1822L37.6884 26.0875C37.5813 26.0481 37.4819 26.0294 37.3824 26.0294Z" fill="#156738"/>
</svg>
