<svg width="75" height="75" viewBox="0 0 75 75" fill="none" xmlns="http://www.w3.org/2000/svg">
<circle cx="37.5" cy="37.5" r="37.5" fill="black" fill-opacity="0.1"/>
<path fill-rule="evenodd" clip-rule="evenodd" d="M21.8068 19.6635C20.8001 19.6635 20 20.4736 20 21.4903V24.0039C20 30.051 23.0502 31.3078 25.5371 32.2979C26.8972 32.8679 28.084 33.3446 28.674 34.5414C28.8207 34.8414 28.7941 35.1981 28.554 35.4414C28.3407 35.6781 28.0406 35.7915 27.7306 35.7915C27.6106 35.7915 27.4873 35.7715 27.3706 35.7381C26.9272 35.5581 26.8705 35.0214 26.8972 34.6014C26.9139 34.1847 26.6039 33.9647 26.2938 33.9647C26.0105 33.9647 25.7271 34.1514 25.7138 34.5414C25.6838 35.0481 25.7438 36.3382 26.8972 36.8483C27.1639 36.9349 27.4306 36.9949 27.6973 36.9949C28.3473 36.9949 28.9707 36.7582 29.4141 36.2782C29.9741 35.6781 30.1241 34.7814 29.7408 34.0347C28.9407 32.4145 27.4306 31.8178 25.9505 31.2178C24.797 30.7111 23.5803 30.231 22.6935 29.2143C21.6901 28.0775 21.1834 26.3707 21.1834 24.0372V21.5203C21.1834 21.1603 21.4501 20.8936 21.7801 20.8936C22.7235 20.8936 23.6136 21.3703 24.1437 22.1504L24.617 22.8371C25.0904 23.5272 25.8938 23.9472 26.7505 23.9472H29.5341C30.3308 23.9472 30.3308 22.7471 29.5341 22.7471H26.7505C26.2772 22.7471 25.8605 22.5071 25.5971 22.1504L25.1237 21.4603C24.3837 20.3502 23.1403 19.6935 21.8068 19.6635Z" fill="#27BA65"/>
<path fill-rule="evenodd" clip-rule="evenodd" d="M52.4729 19.6669C51.0961 19.6669 49.8126 20.3536 49.0493 21.4604L48.5592 22.1137C48.2859 22.5038 47.8591 22.7404 47.3658 22.7404H44.4955C43.6688 22.7404 43.6688 23.9372 44.4955 23.9372H47.3991C48.2525 23.9372 49.0759 23.5205 49.5993 22.8338L50.0593 22.1471C50.6361 21.367 51.5228 20.8903 52.4995 20.8903C52.8662 20.8903 53.1429 21.1603 53.1429 21.487V23.9972C53.1429 26.3574 52.6229 28.0942 51.5828 29.1976C50.666 30.181 49.4159 30.6911 48.1925 31.1678C46.6957 31.7679 45.1056 32.3946 44.3122 34.008C43.9155 34.7581 44.0355 35.6515 44.6489 36.2482C45.1056 36.7283 45.749 36.9949 46.4224 36.9949C46.6957 36.9949 46.9691 36.9083 47.2158 36.8182C48.4059 36.3082 48.4692 35.0248 48.4359 34.5148C48.4225 34.1247 48.1258 33.938 47.8291 33.938C47.5125 33.938 47.1991 34.1481 47.2158 34.5481C47.2458 34.9648 47.1858 35.5015 46.7257 35.7115C46.6157 35.7415 46.5024 35.7582 46.3857 35.7582C46.0557 35.7582 45.7323 35.6348 45.5056 35.4115C45.2589 35.1748 45.2256 34.8148 45.379 34.5148C45.9923 33.3213 47.2158 32.8413 48.6225 32.2745C51.1894 31.2611 54.333 30.0044 54.333 23.9972V21.487C54.333 20.4736 53.5096 19.6669 52.4729 19.6669Z" fill="#156738"/>
<path fill-rule="evenodd" clip-rule="evenodd" d="M35.668 40.3352V52.6662H38.3315V40.3352H35.668Z" fill="#156738"/>
<path fill-rule="evenodd" clip-rule="evenodd" d="M27.334 18.3334V26.3408C27.334 31.9746 29.9909 37.305 34.4846 40.6552L37.1681 42.6621L39.8517 40.6552C44.3454 37.305 46.9989 31.9746 46.9989 26.3408V18.3334H27.334Z" fill="#1A8246"/>
<path fill-rule="evenodd" clip-rule="evenodd" d="M43.3052 18.3334V26.3408C43.3052 31.9746 40.6283 37.305 36.1479 40.6552L35.3379 41.262L37.2014 42.6621L39.8449 40.6552C44.3586 37.305 47.0022 31.9746 47.0022 26.3408V18.3334H43.3052Z" fill="#156738"/>
<path fill-rule="evenodd" clip-rule="evenodd" d="M26.5801 17C26.2768 17 26.0034 17.2367 26.0034 17.53V19.0969C26.0034 19.3935 26.2768 19.6602 26.5801 19.6602H47.7919C48.0919 19.6602 48.3352 19.3935 48.3352 19.0969V17.53C48.3352 17.2367 48.0919 17 47.7919 17H26.5801Z" fill="#27BA65"/>
<path fill-rule="evenodd" clip-rule="evenodd" d="M44.6685 17V19.6602H47.7954C48.0921 19.6602 48.3354 19.3935 48.3354 19.0969V17.53C48.3354 17.2367 48.0921 17 47.7954 17H44.6685Z" fill="#156738"/>
<path fill-rule="evenodd" clip-rule="evenodd" d="M37.1683 24.3339C37.1316 24.3339 37.0916 24.3506 37.0649 24.3773L35.6849 27.2575C35.6582 27.2875 35.6282 27.3175 35.5982 27.3175L32.4846 27.7742C32.3979 27.8075 32.3379 27.9309 32.4246 27.9909L34.6714 30.2244C34.7014 30.2578 34.7014 30.3178 34.7014 30.3478L34.1614 33.5013C34.1614 33.6047 34.2214 33.6613 34.2947 33.6613C34.3114 33.6613 34.3247 33.6613 34.3414 33.6547L37.125 32.1545C37.1416 32.1379 37.1516 32.1312 37.1716 32.1312C37.1916 32.1312 37.2116 32.1379 37.245 32.1545L39.9985 33.6547C40.0119 33.6613 40.0285 33.6613 40.0452 33.6613C40.1219 33.6613 40.2019 33.6047 40.1752 33.5013L39.6385 30.3478C39.6385 30.3178 39.6652 30.2578 39.6985 30.2244L41.942 27.9909C42.002 27.9309 41.972 27.8075 41.852 27.7742L38.7685 27.3175C38.7084 27.3175 38.6784 27.2875 38.6517 27.2575L37.275 24.3773C37.245 24.3506 37.205 24.3339 37.1683 24.3339Z" fill="white"/>
<path fill-rule="evenodd" clip-rule="evenodd" d="M35.6752 40.9987C35.1152 40.9987 34.6685 41.482 34.6685 42.0888V42.5721C34.6685 43.1822 35.1152 43.6622 35.6752 43.6622H38.6621C39.2222 43.6622 39.6689 43.1822 39.6689 42.5721V42.0888C39.6689 41.482 39.2222 40.9987 38.6621 40.9987H35.6752Z" fill="#27BA65"/>
<path fill-rule="evenodd" clip-rule="evenodd" d="M33.375 50.6694C32.5983 50.6694 32.0049 51.2794 32.0049 52.0728V54.3297H42.3357V54.2997V52.0728C42.3357 51.2794 41.709 50.6694 40.9356 50.6694H33.375Z" fill="#27BA65"/>
<path fill-rule="evenodd" clip-rule="evenodd" d="M38.668 50.6694V54.333H42.3349V52.0862C42.3349 51.2828 41.7082 50.6694 40.9615 50.6694H38.668Z" fill="#156738"/>
<path fill-rule="evenodd" clip-rule="evenodd" d="M29.45 53.6663C29.0867 53.6663 28.7566 53.9263 28.6966 54.273L28.0899 57.1333C27.9999 57.5966 28.3633 58 28.8433 58H45.1246C45.638 58 46.0014 57.5966 45.8814 57.1333L45.308 54.273C45.248 53.9263 44.9146 53.6663 44.5546 53.6663H29.45Z" fill="#27BA65"/>
<path fill-rule="evenodd" clip-rule="evenodd" d="M41.6714 53.6663L42.5081 58H45.1917C45.6517 58 45.9984 57.5966 45.9417 57.1333L45.365 54.273C45.3083 53.9263 44.9883 53.6663 44.645 53.6663H41.6714Z" fill="#156738"/>
</svg>
