<svg width="75" height="75" viewBox="0 0 75 75" fill="none" xmlns="http://www.w3.org/2000/svg">
<circle cx="37.5" cy="37.5" r="37.5" fill="black" fill-opacity="0.1"/>
<path fill-rule="evenodd" clip-rule="evenodd" d="M16.2446 16.0031C16.1581 16.0031 16.0747 16.0834 16.0747 16.1267V26.6863C16.0747 26.7697 16.1581 26.8099 16.2446 26.8099H48.3715C48.4147 26.8099 48.4981 26.7697 48.4981 26.6863V16.1267C48.4981 16.0834 48.4147 16.0031 48.3715 16.0031H16.2446Z" fill="white"/>
<path fill-rule="evenodd" clip-rule="evenodd" d="M16.2446 41.638C16.1581 41.638 16.0747 41.7245 16.0747 41.8079V52.5405C16.0747 52.627 16.1581 52.7104 16.2446 52.7104H43.507L43.8437 52.7536H43.8869L44.1803 52.5806C44.3904 52.454 44.5602 52.3675 44.7703 52.2842L49.6501 50.3168C49.6934 50.3168 49.7335 50.2735 49.7335 50.1901V48.0498C49.7335 48.0096 49.7335 47.9633 49.6934 47.9232L49.1899 47.6637C48.3035 47.1541 47.6302 46.3418 47.3801 45.3566L47.17 44.6308C47.17 44.5443 47.0836 44.5011 47.0403 44.5011H46.2867C45.5269 44.5011 44.8938 43.8586 44.8938 43.0896C44.8938 43.0062 44.8938 42.963 44.8938 42.8765L45.0204 41.8079C45.0204 41.7245 44.9803 41.638 44.8938 41.638H16.2446Z" fill="white"/>
<path fill-rule="evenodd" clip-rule="evenodd" d="M48.4147 28.663C48.4024 28.663 48.3869 28.6661 48.3715 28.6754H16.2446C16.1581 28.6754 16.0747 28.7155 16.0747 28.802V39.652C16.0747 39.7385 16.1581 39.7786 16.2446 39.7786H44.8598C44.9432 39.7786 44.9864 39.7385 45.0297 39.652L45.0698 38.7903C45.2397 37.0237 46.2126 36.2052 47.9051 35.3034L48.4579 35.0439C48.4981 35.0007 48.4981 34.9574 48.4981 34.9142V28.802C48.4981 28.734 48.4734 28.663 48.4147 28.663Z" fill="white"/>
<path fill-rule="evenodd" clip-rule="evenodd" d="M27.5241 19.4005C26.5759 19.4005 26.5759 20.9417 27.5241 20.9417C27.5519 20.9417 27.5766 20.9386 27.6044 20.9386H35.4246C35.4524 20.9386 35.4771 20.9417 35.5049 20.9417C36.4562 20.9417 36.4562 19.4005 35.5049 19.4005C35.4771 19.4005 35.4524 19.4005 35.4246 19.4036H27.6044C27.5766 19.4005 27.5519 19.4005 27.5241 19.4005Z" fill="#156738"/>
<path fill-rule="evenodd" clip-rule="evenodd" d="M27.5086 22.486C26.5759 22.486 26.5759 24.0303 27.5086 24.0303C27.5333 24.0303 27.5581 24.0303 27.5858 24.0272H42.9945C43.8655 23.9345 43.8655 22.5385 42.9945 22.4891H27.5858C27.5581 22.4891 27.5333 22.486 27.5086 22.486Z" fill="#156738"/>
<path fill-rule="evenodd" clip-rule="evenodd" d="M27.5241 32.3724C26.5759 32.3724 26.5759 33.6048 27.5241 33.6048C27.5519 33.6048 27.5766 33.6048 27.6044 33.6017H35.4246C35.4524 33.6048 35.4771 33.6048 35.5049 33.6048C36.4562 33.6048 36.4562 32.3724 35.5049 32.3724C35.4771 32.3724 35.4524 32.3724 35.4246 32.3755H27.6044C27.5766 32.3724 27.5519 32.3724 27.5241 32.3724Z" fill="#156738"/>
<path fill-rule="evenodd" clip-rule="evenodd" d="M27.4838 35.4578C26.5757 35.4578 26.5881 36.6901 27.5178 36.6901C27.5456 36.6901 27.5702 36.6901 27.598 36.6871H43.0253C43.8684 36.6129 43.8684 35.5011 43.0253 35.4671H27.598C27.561 35.4609 27.5208 35.4578 27.4838 35.4578Z" fill="#156738"/>
<path fill-rule="evenodd" clip-rule="evenodd" d="M27.5241 45.0322C26.5759 45.0322 26.5759 46.5734 27.5241 46.5734C27.5519 46.5734 27.5766 46.5734 27.6044 46.5703H35.4246C35.4524 46.5734 35.4771 46.5734 35.5049 46.5734C36.4562 46.5734 36.4562 45.0322 35.5049 45.0322C35.4771 45.0322 35.4524 45.0322 35.4246 45.0353H27.6044C27.5766 45.0322 27.5519 45.0322 27.5241 45.0322Z" fill="#156738"/>
<path fill-rule="evenodd" clip-rule="evenodd" d="M27.5147 48.4296C26.5758 48.4296 26.5758 49.6619 27.5147 49.6619C27.5425 49.6619 27.5672 49.6619 27.595 49.6589H42.8462C42.874 49.6619 42.8987 49.6619 42.9265 49.6619C43.8685 49.6619 43.8685 48.4296 42.9265 48.4296C42.8987 48.4296 42.874 48.4327 42.8462 48.4327H27.595C27.5672 48.4327 27.5425 48.4296 27.5147 48.4296Z" fill="#156738"/>
<path fill-rule="evenodd" clip-rule="evenodd" d="M22.7856 18.4708C22.7486 18.4708 22.7115 18.4739 22.6714 18.4801H19.24C18.8292 18.4801 18.542 18.7766 18.542 19.1596V23.9221C18.542 24.3051 18.8292 24.6448 19.24 24.6448H24.021C24.3917 24.6448 24.6758 24.3051 24.6758 23.9221V22.6465C24.716 22.1153 24.3608 21.8497 23.9994 21.8497C23.6443 21.8497 23.286 22.1153 23.3261 22.6465V23.1994H19.8917V19.8823H22.6714C22.6992 19.8854 22.7239 19.8854 22.7486 19.8854C23.6566 19.8854 23.669 18.4708 22.7856 18.4708Z" fill="#156738"/>
<path fill-rule="evenodd" clip-rule="evenodd" d="M24.9324 18.474C24.7564 18.474 24.5711 18.5481 24.4136 18.7303L22.0385 21.2846L21.3189 20.5062C21.1583 20.324 20.973 20.2468 20.7938 20.2468C20.2564 20.2468 19.7777 20.9387 20.2564 21.4575L21.4856 22.8412C21.6154 23.0141 21.8254 23.1006 22.0385 23.1006C22.2485 23.1006 22.4184 23.0141 22.5913 22.8844L25.4729 19.7279C25.9516 19.1751 25.4698 18.474 24.9324 18.474Z" fill="#156738"/>
<path fill-rule="evenodd" clip-rule="evenodd" d="M19.2431 31.4458C18.8292 31.4458 18.542 31.7824 18.542 32.1623V36.9002C18.542 37.28 18.8292 37.6167 19.2431 37.6167H24.0612C24.4318 37.6167 24.7191 37.28 24.7191 36.9002V35.6308C24.6758 35.186 24.3484 34.9636 24.0241 34.9636C23.6968 34.9636 23.3786 35.186 23.3601 35.6308V36.1774H19.901V32.8851H22.6991C23.5639 32.7986 23.5639 31.5292 22.6991 31.4458H19.2431Z" fill="#156738"/>
<path fill-rule="evenodd" clip-rule="evenodd" d="M24.9322 31.4427C24.7562 31.4427 24.5709 31.52 24.4165 31.7022L22.0383 34.2564L21.3187 33.4348C21.1642 33.2619 20.982 33.194 20.809 33.194C20.2655 33.194 19.7775 33.8703 20.2593 34.4294L21.4855 35.8161C21.6152 35.986 21.8283 36.0725 22.0383 36.0725C22.2514 36.0725 22.4213 35.986 22.5911 35.8161L25.4727 32.6967C25.9514 32.1439 25.4696 31.4427 24.9322 31.4427Z" fill="#156738"/>
<path fill-rule="evenodd" clip-rule="evenodd" d="M22.7764 44.4177C22.7547 44.4177 22.73 44.4177 22.6991 44.4208H19.2431C18.8292 44.4208 18.542 44.7574 18.542 45.1373V49.872C18.542 50.2519 18.8292 50.5885 19.2431 50.5885H24.0612C24.4318 50.5484 24.7191 50.2519 24.7191 49.8319V48.5625C24.6758 48.1394 24.3484 47.9262 24.0241 47.9262C23.6968 47.9262 23.3786 48.1394 23.3601 48.5625V49.1555H19.901V45.8569H22.6991C22.73 45.8569 22.7547 45.86 22.7764 45.86C23.7029 45.86 23.7029 44.4177 22.7764 44.4177Z" fill="#156738"/>
<path fill-rule="evenodd" clip-rule="evenodd" d="M24.9326 44.4146C24.7566 44.4146 24.5713 44.4887 24.4168 44.6586L22.0387 47.0584L21.319 46.2862C21.1615 46.1133 20.9793 46.0453 20.8002 46.0453C20.2628 46.0453 19.781 46.7001 20.2597 47.222L21.4858 48.5254C21.6156 48.6459 21.8286 48.7261 22.0387 48.7261C22.0788 48.7354 22.1097 48.7385 22.1468 48.7385C22.3105 48.7385 22.4494 48.6582 22.5915 48.5254L25.4731 45.5944C25.9518 45.0755 25.47 44.4146 24.9326 44.4146Z" fill="#156738"/>
<path fill-rule="evenodd" clip-rule="evenodd" d="M48.2599 49.3593L43.9731 51.0919C43.5499 51.2216 43.167 51.4749 42.8272 51.7312L42.7006 51.8146L42.6573 51.9011L42.6172 51.9413L42.4875 52.0277C41.7246 52.7906 41.2582 53.7635 41.0884 54.863V55.0329V55.0761V55.246V55.3294V55.3726V55.5857V56.2652V58.3376C41.1254 58.841 41.5208 59.2395 42.0088 59.2395C42.0551 59.2395 42.1014 59.2364 42.1508 59.2271H58.866C58.9154 59.2364 58.9617 59.2395 59.008 59.2395C59.5022 59.2395 59.9253 58.841 59.9253 58.3376V56.2652V55.5857H59.7153V55.3726V55.3294V55.246V55.0761V55.0329V54.863C59.5887 53.7635 59.0791 52.7906 58.3162 52.0277L58.1896 51.9413L58.1432 51.9011L58.1031 51.8146L57.9734 51.7312C57.6367 51.4749 57.2537 51.2216 56.8306 51.0919L52.5437 49.3593L51.4844 50.4588L50.4219 51.5181L49.3224 50.4588L48.2599 49.3593Z" fill="#156738"/>
<path fill-rule="evenodd" clip-rule="evenodd" d="M48.0716 49.665L43.8094 51.2742C41.9749 51.9722 40.7827 53.745 40.8692 55.6846V58.3624C40.8692 58.8503 41.2923 59.2395 41.7926 59.2395C41.8359 59.2395 41.8884 59.2364 41.9347 59.2271H42.1478V55.6846C42.0613 53.745 43.2535 51.9722 45.0881 51.2742L48.5009 49.9955L48.0716 49.665Z" fill="#27B262"/>
<path fill-rule="evenodd" clip-rule="evenodd" d="M54.8446 41.0295L54.7952 41.0789L54.8014 41.0728L54.8446 41.0295ZM54.7612 41.0728V41.1129V41.1561L54.718 41.2395L54.7612 41.1129L54.6346 41.1963L54.7612 41.0728ZM50.1253 33.9166C46.9936 33.9166 44.4888 36.443 44.4888 39.5563V42.2495C44.4888 42.2495 45.7829 42.1229 45.9496 41.4928C45.9898 41.4063 46.033 41.3662 46.0732 41.2828C46.7866 41.2828 50.1686 41.2395 52.1298 38.883C52.5467 40.0196 53.464 40.9029 54.6346 41.2395C54.6778 41.3229 54.718 41.4063 54.7612 41.4496C54.928 42.0796 56.2221 42.2093 56.2221 42.2093V39.5563C56.1819 36.443 53.6741 33.9166 50.5824 33.9166H50.1253Z" fill="#156738"/>
<path fill-rule="evenodd" clip-rule="evenodd" d="M49.9709 33.9136C46.9658 33.9136 44.4888 36.4832 44.4888 39.5996V42.2526C44.8131 42.2094 45.1374 42.1229 45.4617 41.9994V41.0728V39.5996C45.4617 36.5666 47.7348 34.0834 50.6627 33.9136H49.9709Z" fill="#27B262"/>
<path fill-rule="evenodd" clip-rule="evenodd" d="M55.367 41.6348C54.9994 41.6348 54.6782 41.9313 54.6782 42.3205V44.3466C54.6782 44.7357 54.9994 45.0322 55.367 45.0322C55.4287 45.0322 55.4905 45.023 55.5554 45.0075C55.6727 44.9643 55.8333 44.8809 55.9507 44.8407C56.0711 44.7172 56.1916 44.5906 56.3121 44.5103C57.146 43.559 56.7506 42.0332 55.5554 41.6595C55.4905 41.6441 55.4287 41.6348 55.367 41.6348Z" fill="#FFE1B0"/>
<path fill-rule="evenodd" clip-rule="evenodd" d="M45.2917 41.638C45.2084 41.638 45.125 41.6534 45.0447 41.6812C43.2533 42.1754 43.2533 44.4949 45.0447 44.9921C45.125 45.0168 45.2083 45.0323 45.2856 45.0323C45.6871 45.0323 46.0299 44.708 46.0299 44.3312V42.3422C46.0299 42.0951 45.894 41.8882 45.718 41.7646C45.5975 41.6843 45.4462 41.638 45.2917 41.638Z" fill="#FFB53C"/>
<path fill-rule="evenodd" clip-rule="evenodd" d="M48.893 47.5062C48.51 47.5062 48.1919 47.8398 48.1919 48.2073V50.3261C48.1919 50.4928 48.2753 50.709 48.405 50.8326L49.8288 52.2317C49.9555 52.3583 50.1655 52.4448 50.3323 52.4448C50.5423 52.4448 50.7121 52.3583 50.8758 52.2317L52.346 50.6627C52.4726 50.5361 52.5127 50.3662 52.5127 50.1963V48.2073C52.5127 47.9973 52.4294 47.8707 52.3027 47.741C52.136 47.6143 51.9692 47.5309 51.7561 47.5309H51.6325C51.3793 47.5711 51.0859 47.6143 50.7925 47.6143H49.9122C49.6188 47.6143 49.3254 47.5711 49.0752 47.5309C49.0104 47.5124 48.9548 47.5062 48.893 47.5062Z" fill="#FFE1B0"/>
<path fill-rule="evenodd" clip-rule="evenodd" d="M48.8343 47.5031C48.4729 47.5031 48.1919 47.8212 48.1919 48.2382V50.3199C48.1919 50.533 48.2691 50.7028 48.3865 50.8295L49.696 52.2749C49.8134 52.4046 50.0049 52.4448 50.1593 52.4448C50.3539 52.4448 50.5083 52.3583 50.6596 52.2317C50.5083 52.1884 50.3909 52.1483 50.2767 52.0618L48.964 50.6163C48.8498 50.4897 48.7725 50.3199 48.7725 50.1068V48.0281C48.7725 47.815 48.8498 47.6452 48.964 47.5155C48.9208 47.5062 48.8744 47.5031 48.8343 47.5031Z" fill="#FFB53C"/>
<path fill-rule="evenodd" clip-rule="evenodd" d="M52.1117 38.8583C52.0623 38.8583 52.0128 38.8737 51.9696 38.9015C50.9627 39.6551 49.8293 40.1987 48.6155 40.5353C48.2387 40.6589 47.8619 40.7423 47.4851 40.8257C47.1515 40.8658 46.7716 40.9122 46.3948 40.9523C46.018 40.9955 45.7246 41.2889 45.7246 41.6657V44.5535C45.7246 46.8514 47.6086 48.7354 49.9157 48.7354H50.7929C53.1 48.7354 54.9871 46.8514 54.9871 44.5535V41.536C54.9871 41.2426 54.7771 40.9955 54.5269 40.8658C54.4404 40.8257 54.357 40.7824 54.2767 40.7824C53.4367 40.4489 52.7664 39.8219 52.3896 39.0683L52.3464 38.9849C52.2939 38.9046 52.2012 38.8583 52.1117 38.8583Z" fill="#FFE1B0"/>
<path fill-rule="evenodd" clip-rule="evenodd" d="M52.192 38.8583C52.1426 38.8583 52.0932 38.8737 52.0499 38.9015C51.0276 39.6551 49.8818 40.1987 48.6525 40.5353C48.2696 40.6589 47.8897 40.7423 47.5067 40.7824C47.167 40.8658 46.787 40.9122 46.4041 40.9523C46.0211 40.9955 45.7246 41.2889 45.7246 41.6657V44.5535C45.7246 46.8514 47.6333 48.7354 49.9682 48.7354H50.8176C48.4827 48.7354 46.6141 46.8514 46.6141 44.5535V41.6657C46.6141 41.2889 46.9137 40.9955 47.2503 40.9523C47.6333 40.9122 48.0163 40.8658 48.3962 40.8257C49.8818 40.5353 51.284 39.9887 52.5132 39.1949L52.473 39.0683L52.4298 38.9849C52.3742 38.9046 52.2846 38.8583 52.192 38.8583Z" fill="#FFB53C"/>
</svg>
