<svg width="49" height="49" viewBox="0 0 49 49" fill="none" xmlns="http://www.w3.org/2000/svg">
<path fill-rule="evenodd" clip-rule="evenodd" d="M24.661 0C20.0261 0 15.3616 1.33978 11.2733 4.08332C1.71281 10.4521 -1.97647 22.7414 2.42699 33.3806C6.21968 42.5126 15.0857 48.2657 24.6906 48.2657C26.2372 48.2657 27.8036 48.1179 29.3699 47.8076C40.6199 45.5419 48.7569 35.6513 48.7569 24.1205C48.7569 17.7074 46.2203 11.5603 41.6838 7.06818C37.0292 2.39874 30.8722 0 24.661 0Z" fill="#F9A419"/>
<path fill-rule="evenodd" clip-rule="evenodd" d="M24.6165 5.41813C21.0159 5.41813 17.3956 6.45743 14.2284 8.56558C6.81546 13.5404 3.93395 23.0418 7.3523 31.302C10.2929 38.4047 17.169 42.8525 24.6017 42.8525C25.8084 42.8525 27.03 42.7343 28.2515 42.4929C37.0338 40.7591 43.3336 33.0752 43.3336 24.1501C43.3336 19.1753 41.3388 14.3778 37.8367 10.9151C34.2262 7.28001 29.4386 5.41813 24.6165 5.41813Z" fill="#C07700"/>
<path fill-rule="evenodd" clip-rule="evenodd" d="M24.6217 6.40818C23.7204 6.40818 22.819 6.99429 22.819 8.16165V10.6343C18.7258 11.1269 15.7557 14.6585 15.9823 18.727C16.2532 22.7463 19.6715 25.879 23.7647 25.9282H25.4788C25.528 25.9233 25.5872 25.9233 25.6364 25.9233C27.9514 25.9233 29.8379 27.7457 29.8379 30.0361C29.8379 32.3216 27.9514 34.144 25.6364 34.144C25.5872 34.144 25.528 34.144 25.4788 34.144H22.9126C21.0655 34.144 19.5829 32.6861 19.5829 30.8735C19.5829 29.7012 18.6815 29.115 17.7801 29.115C16.8837 29.115 15.9823 29.7012 15.9823 30.8735C15.9823 34.6268 19.041 37.6363 22.819 37.72V40.109C22.819 41.2763 23.7204 41.8624 24.6217 41.8624C25.5182 41.8624 26.4245 41.2763 26.4245 40.109V37.6363C30.5127 37.1487 33.4829 33.6121 33.2563 29.5928C32.9903 25.5292 29.6163 22.3916 25.4788 22.3424H23.7647C23.7105 22.3473 23.6563 22.3473 23.6022 22.3473C21.2921 22.3473 19.4056 20.5249 19.4056 18.2345C19.4056 15.949 21.2921 14.1266 23.6022 14.1266C23.6563 14.1266 23.7105 14.1266 23.7647 14.1266H26.326C28.178 14.1266 29.6606 15.5845 29.6606 17.402V19.0767C29.6606 20.0668 30.429 20.845 31.424 20.845C31.4486 20.845 31.4781 20.845 31.5027 20.845C32.4977 20.845 33.3055 20.052 33.3055 19.0767V17.402C33.3055 13.6881 30.2418 10.6343 26.4245 10.5949V8.16165C26.4245 6.99429 25.5182 6.40818 24.6217 6.40818Z" fill="#F9A419"/>
</svg>
