<svg width="209" height="211" viewBox="0 0 209 211" fill="none" xmlns="http://www.w3.org/2000/svg">
    <g opacity="0.5">
        <path fill-rule="evenodd" clip-rule="evenodd"
            d="M68.4226 72.9918C68.4226 61.6216 77.6676 52.4044 89.0755 52.4044C100.483 52.4044 109.728 61.6216 109.728 72.9918C109.728 84.3621 100.483 93.5792 89.0755 93.5792C77.6676 93.5792 68.4226 84.3621 68.4226 72.9918Z"
            fill="black" fill-opacity="0.870588" />
        <path
            d="M80.2186 115.053L80.1797 115.029L75.2537 112.073C65.608 105.644 57.7639 96.4341 53.1376 85.0432C40.7993 54.667 55.8672 20.0801 87.0104 8.0478L88.3247 7.67348L83.8186 8.23496C36.0065 17.778 0.0805664 59.3146 0.0805664 108.772C0.0805664 165.294 46.7112 210.74 104.659 210.74C108.282 210.74 109.391 210.715 112.92 210.366L112.545 209.243L113.031 207.596C105.234 199.109 99.8641 188.339 98.156 176.201C96.7319 166.086 98.0198 156.217 101.479 147.294L101.759 146.658L101.28 144.486L102.406 141.866C105.85 135.052 109.56 128.593 115.361 123.525L120.055 119.594L118.553 119.781C104.662 122.181 92.125 121.453 80.2186 115.053Z"
            fill="black" />
        <path fill-rule="evenodd" clip-rule="evenodd"
            d="M200.977 137.749L197.259 147.987C184.181 178.816 156.491 201.981 122.849 208.846L112.86 210.366L109.924 207.396C102.243 198.849 96.9535 188.002 95.2708 175.776C93.8679 165.589 95.1366 155.65 98.5442 146.662L98.82 146.023L103.32 149.671C112.703 156.56 123.895 161.279 136.249 162.977C160.957 166.373 184.468 156.883 199.957 139.662L200.977 137.749Z"
            fill="black" />
        <path
            d="M80.6453 113.327L80.6041 113.304L75.8501 110.388C66.545 104.048 58.9711 94.9635 54.5063 83.7287C42.599 53.7691 57.3152 19.8619 87.367 7.99449L88.3546 7.60486L84.1563 8.2436C38.0141 17.6558 3.30229 58.3534 3.30229 107.132C3.30229 162.879 48.6409 208.071 104.565 208.071C108.057 208.071 111.512 207.895 114.918 207.55L115.184 207.509L112.308 204.601C104.783 196.23 99.601 185.608 97.9526 173.636C96.5782 163.66 97.8211 153.927 101.159 145.125L101.43 144.499L103.405 139.962C106.728 133.241 111.32 127.205 116.919 122.205L120.355 119.422L119.075 119.715C105.673 122.082 92.1321 119.639 80.6453 113.327Z"
            fill="#29C65F" />
        <path fill-rule="evenodd" clip-rule="evenodd"
            d="M201.146 137.496L197.867 146.422C185.055 176.612 157.928 199.298 124.97 206.02L115.184 207.509L112.308 204.601C104.783 196.23 99.601 185.608 97.9526 173.636C96.5782 163.66 97.8211 153.927 101.159 145.125L101.43 144.499L105.838 148.072C115.031 154.818 125.995 159.439 138.098 161.102C162.307 164.428 185.337 155.134 200.511 138.27L201.146 137.496Z"
            fill="#F9A419" />
        <path fill-rule="evenodd" clip-rule="evenodd"
            d="M103.345 0C103.345 3.82451 106.371 6.9249 110.104 6.9249C106.371 6.9249 103.345 10.0253 103.345 13.8498C103.345 10.0253 100.318 6.9249 96.5857 6.9249C100.318 6.9249 103.345 3.82451 103.345 0Z"
            fill="#141E46" />
        <path fill-rule="evenodd" clip-rule="evenodd"
            d="M136.765 62.8853C136.765 63.9191 137.606 64.7569 138.643 64.7569C137.606 64.7569 136.765 65.595 136.765 66.6284C136.765 65.595 135.924 64.7569 134.887 64.7569C135.924 64.7569 136.765 63.9191 136.765 62.8853Z"
            fill="#141E46" />
        <path fill-rule="evenodd" clip-rule="evenodd"
            d="M201.164 117.292C201.164 121.116 204.274 124.217 208.111 124.217C204.274 124.217 201.164 127.317 201.164 131.142C201.164 127.317 198.055 124.217 194.217 124.217C198.055 124.217 201.164 121.116 201.164 117.292Z"
            fill="#141E46" />
        <path fill-rule="evenodd" clip-rule="evenodd"
            d="M186.52 105.183C186.52 106.217 187.443 107.055 188.585 107.055C187.443 107.055 186.52 107.893 186.52 108.926C186.52 107.893 185.596 107.055 184.454 107.055C185.596 107.055 186.52 106.217 186.52 105.183Z"
            fill="#141E46" />
        <path fill-rule="evenodd" clip-rule="evenodd"
            d="M165.679 87.9645C165.679 88.9984 166.52 89.8361 167.556 89.8361C166.52 89.8361 165.679 90.6742 165.679 91.7077C165.679 90.6742 164.838 89.8361 163.801 89.8361C164.838 89.8361 165.679 88.9984 165.679 87.9645Z"
            fill="#141E46" />
        <path fill-rule="evenodd" clip-rule="evenodd"
            d="M130.569 39.6776C130.569 40.7111 131.493 41.5492 132.634 41.5492C131.493 41.5492 130.569 42.3869 130.569 43.4208C130.569 42.3869 129.645 41.5492 128.504 41.5492C129.645 41.5492 130.569 40.7111 130.569 39.6776Z"
            fill="#141E46" />
        <path fill-rule="evenodd" clip-rule="evenodd"
            d="M160.422 30.0759C160.422 42.0664 170.174 51.7863 182.201 51.7863C170.174 51.7863 160.422 61.5062 160.422 73.4967C160.422 61.5062 150.67 51.7863 138.642 51.7863C150.67 51.7863 160.422 42.0664 160.422 30.0759Z"
            fill="#141E46" />
        <path fill-rule="evenodd" clip-rule="evenodd"
            d="M180.324 25.8279C180.324 26.9651 181.165 27.8866 182.201 27.8866C181.165 27.8866 180.324 28.8086 180.324 29.9454C180.324 28.8086 179.483 27.8866 178.446 27.8866C179.483 27.8866 180.324 26.9651 180.324 25.8279Z"
            fill="#141E46" />
        <path fill-rule="evenodd" clip-rule="evenodd"
            d="M58.2839 43.7951H103.465L134.512 76.038L111.309 76.3352L111.426 75.2085L111.335 74.3285L111.016 77.505C109.139 86.6787 101.028 93.5793 91.3023 93.5793C80.191 93.5793 71.1826 84.5661 71.1826 73.4481C71.1826 65.1095 76.2482 57.9548 83.4729 54.8988L86.9801 53.8088L85.3881 53.9694C81.1561 54.8356 77.3746 56.9363 74.4344 59.8788L73.9501 60.4627L58.2839 43.7951Z"
            fill="#29C65F" />
        <path fill-rule="evenodd" clip-rule="evenodd"
            d="M125.305 84.0319C125.316 82.4531 124.625 81.2062 124.02 80.4149C124.486 80.1929 124.839 79.7542 124.929 79.2066C125.057 78.4179 124.587 77.6719 123.859 77.4166L123.829 77.5956C123.802 77.7655 123.66 77.9055 123.487 77.9077C123.266 77.9107 123.104 77.7142 123.138 77.5042L123.164 77.3328C122.443 77.4009 121.831 77.9444 121.711 78.6908C121.568 79.5768 122.173 80.4104 123.059 80.5527C123.153 80.5676 123.243 80.5725 123.333 80.5717C123.555 82.6488 123.138 83.445 122.646 83.7557C121.05 84.7649 118.016 81.0879 114.231 81.959C113.123 82.2139 112.301 82.778 111.779 83.2118C111.854 83.4188 111.933 83.6307 112.015 83.8451C112.451 83.4749 113.198 82.9895 114.238 82.8573C115.624 82.6806 116.66 83.2466 116.98 83.4394C116.987 83.4446 116.987 83.4454 116.976 83.4416C116.694 83.3174 115.613 82.8843 114.46 83.3421C113.611 83.6786 112.954 84.4063 112.631 85.3158C112.819 85.7313 113.446 86.9722 113.547 87.1582C113.863 86.7184 114.362 86.447 114.452 86.3972C115.448 85.8578 116.495 86.2277 116.713 86.31V86.3119C116.349 86.3688 115.861 86.5036 115.429 86.8532C114.775 87.3821 114.588 88.1236 114.4 88.5885C114.805 88.8894 117.558 90.8146 120.78 89.7403C123.052 88.9845 125.278 86.8348 125.305 84.0319Z"
            fill="#106E38" />
        <path fill-rule="evenodd" clip-rule="evenodd" d="M124.261 73.9276L123.809 78.0046Z"
            fill="#41B06E" />
        <path fill-rule="evenodd" clip-rule="evenodd"
            d="M135.638 127.829C135.638 118.837 142.953 111.546 151.973 111.546C160.993 111.546 168.307 118.837 168.307 127.829C168.307 136.822 160.993 144.112 151.973 144.112C142.953 144.112 135.638 136.822 135.638 127.829Z"
            fill="black" fill-opacity="0.870588" />
        <path fill-rule="evenodd" clip-rule="evenodd"
            d="M189.524 119.781C189.524 120.608 190.279 121.279 191.214 121.279C190.279 121.279 189.524 121.949 189.524 122.776C189.524 121.949 188.769 121.279 187.834 121.279C188.769 121.279 189.524 120.608 189.524 119.781Z"
            fill="#141E46" />
        <path fill-rule="evenodd" clip-rule="evenodd"
            d="M184.454 101.44C184.454 102.37 185.126 103.124 185.956 103.124C185.126 103.124 184.454 103.879 184.454 104.809C184.454 103.879 183.782 103.124 182.952 103.124C183.782 103.124 184.454 102.37 184.454 101.44Z"
            fill="#141E46" />
        <path fill-rule="evenodd" clip-rule="evenodd"
            d="M127.753 104.809H163.141L187.458 130.021L169.288 130.254L169.374 129.373L169.307 128.685L169.055 131.169C167.587 138.342 161.229 143.738 153.614 143.738C144.91 143.738 137.854 136.69 137.854 127.996C137.854 121.476 141.823 115.881 147.482 113.491L150.231 112.639L148.984 112.765C145.668 113.442 142.706 115.085 140.4 117.385L140.025 117.842L127.753 104.809Z"
            fill="#F9A419" />
        <path fill-rule="evenodd" clip-rule="evenodd"
            d="M180.5 136.519C180.512 135.276 179.967 134.294 179.49 133.672C179.858 133.496 180.136 133.151 180.204 132.72C180.305 132.099 179.937 131.512 179.362 131.311L179.34 131.452C179.317 131.586 179.209 131.696 179.073 131.697C178.897 131.7 178.769 131.545 178.796 131.38L178.814 131.245C178.247 131.298 177.767 131.726 177.669 132.314C177.556 133.012 178.033 133.668 178.735 133.78C178.807 133.791 178.878 133.795 178.949 133.795C179.122 135.43 178.795 136.057 178.409 136.302C177.154 137.096 174.762 134.201 171.785 134.887C170.914 135.088 170.264 135.532 169.851 135.873C169.911 136.036 169.975 136.203 170.039 136.372C170.384 136.08 170.97 135.699 171.789 135.594C172.881 135.455 173.696 135.901 173.948 136.053C173.951 136.057 173.951 136.057 173.944 136.054C173.722 135.956 172.87 135.615 171.961 135.976C171.293 136.241 170.778 136.814 170.523 137.53C170.673 137.857 171.165 138.834 171.244 138.98C171.492 138.634 171.886 138.421 171.958 138.381C172.742 137.956 173.568 138.248 173.737 138.312V138.314C173.448 138.359 173.065 138.465 172.727 138.74C172.213 139.157 172.063 139.74 171.916 140.106C172.235 140.343 174.402 141.859 176.941 141.013C178.728 140.418 180.482 138.726 180.5 136.519Z"
            fill="#FBAF44" />
        <path fill-rule="evenodd" clip-rule="evenodd" d="M179.742 128.578L179.386 131.788Z"
            fill="#41B06E" />
    </g>
</svg>
