<svg width="154" height="51" viewBox="0 0 154 51" fill="none" xmlns="http://www.w3.org/2000/svg">
    <path fill-rule="evenodd" clip-rule="evenodd"
        d="M0 0.117832C0 0.052754 0.129694 0 0.28977 0H153.71C153.87 0 154 0.052754 154 0.117832V50.8822C154 50.9472 153.87 51 153.71 51H0.28977C0.129694 51 0 50.9472 0 50.8822V0.117832Z"
        fill="" />
    <path fill-rule="evenodd" clip-rule="evenodd"
        d="M23.1251 18.7111C23.1251 16.675 24.7835 15.0245 26.83 15.0245C28.8765 15.0245 30.535 16.675 30.535 18.7111C30.535 20.7471 28.8765 22.3976 26.83 22.3976C24.7835 22.3976 23.1251 20.7471 23.1251 18.7111Z"
        fill="black" fill-opacity="0.870588" />
    <path
        d="M25.2342 26.2386L25.2411 26.243C27.377 27.3888 29.6261 27.5193 32.118 27.0896L32.3875 27.0561L31.5454 27.7599C30.5047 28.6675 29.8391 29.824 29.2214 31.0442L29.0193 31.5134L29.1053 31.9024L29.0551 32.0161C29.0394 32.0564 29.024 32.0968 29.0089 32.1372L29.3853 32.4419C31.0686 33.6754 33.0764 34.5205 35.2925 34.8245C39.7248 35.4326 43.9426 33.7333 46.7212 30.6496L46.9041 30.3069L46.2372 32.1402C43.8911 37.6608 38.9238 41.8088 32.8887 43.0382L31.107 43.3088L31.1076 43.3104C30.4745 43.3729 30.2754 43.3774 29.6256 43.3774C19.2302 43.3774 10.865 35.2395 10.865 25.1182C10.865 16.2619 17.3099 8.82403 25.8869 7.11518L26.6953 7.01463L26.4595 7.08166C20.8727 9.23625 18.1696 15.4297 20.383 20.8691C21.2129 22.9088 22.6201 24.5581 24.3505 25.7093L25.2342 26.2386Z"
        fill="black" />
    <path
        d="M25.3177 25.9339L25.3103 25.9296L24.4575 25.4076C22.7882 24.2722 21.4295 22.6455 20.6286 20.6337C18.4925 15.2689 21.1325 9.19719 26.5235 7.07212L26.7007 7.00235L25.9475 7.11673C17.67 8.80214 11.443 16.0898 11.443 24.8245C11.443 34.807 19.5764 42.8995 29.6087 42.8995C30.2352 42.8995 30.8549 42.8679 31.4659 42.8062L31.5137 42.7989L30.9977 42.278C29.6478 40.7792 28.7182 38.877 28.4225 36.7333C28.1759 34.9468 28.3989 33.2039 28.9977 31.6279L29.0462 31.5157L29.4006 30.7033C29.9967 29.4997 30.8206 28.4188 31.8249 27.5236L32.4413 27.0253L32.2116 27.0777C29.8074 27.5015 27.3783 27.0641 25.3177 25.9339Z"
        fill="#29C65F" />
    <path fill-rule="evenodd" clip-rule="evenodd"
        d="M46.9345 30.2616L46.3464 31.86C44.048 37.2662 39.1817 41.3284 33.2692 42.5322L31.5137 42.7989L30.9977 42.278C29.6478 40.7792 28.7182 38.877 28.4225 36.7333C28.1759 34.9468 28.3989 33.2039 28.9977 31.6279L29.0462 31.5157L29.8371 32.1555C31.4861 33.3635 33.4531 34.191 35.6242 34.4888C39.9671 35.0843 44.0985 33.4201 46.8206 30.4003L46.9345 30.2616Z"
        fill="#F9A419" />
    <path fill-rule="evenodd" clip-rule="evenodd"
        d="M29.3898 5.64056C29.3898 6.3254 29.9327 6.88058 30.6023 6.88058C29.9327 6.88058 29.3898 7.43576 29.3898 8.12061C29.3898 7.43576 28.8469 6.88058 28.1773 6.88058C28.8469 6.88058 29.3898 6.3254 29.3898 5.64056Z"
        fill="#141E46" />
    <path fill-rule="evenodd" clip-rule="evenodd"
        d="M35.3851 16.9013C35.3851 17.0864 35.536 17.2364 35.7219 17.2364C35.536 17.2364 35.3851 17.3865 35.3851 17.5716C35.3851 17.3865 35.2342 17.2364 35.0483 17.2364C35.2342 17.2364 35.3851 17.0864 35.3851 16.9013Z"
        fill="#141E46" />
    <path fill-rule="evenodd" clip-rule="evenodd"
        d="M46.9379 26.6438C46.9379 27.3286 47.4956 27.8838 48.1841 27.8838C47.4956 27.8838 46.9379 28.439 46.9379 29.1238C46.9379 28.439 46.3801 27.8838 45.6916 27.8838C46.3801 27.8838 46.9379 27.3286 46.9379 26.6438Z"
        fill="#141E46" />
    <path fill-rule="evenodd" clip-rule="evenodd"
        d="M44.3107 24.4755C44.3107 24.6605 44.4764 24.8106 44.6812 24.8106C44.4764 24.8106 44.3107 24.9607 44.3107 25.1458C44.3107 24.9607 44.145 24.8106 43.9402 24.8106C44.145 24.8106 44.3107 24.6605 44.3107 24.4755Z"
        fill="#141E46" />
    <path fill-rule="evenodd" clip-rule="evenodd"
        d="M40.572 21.3922C40.572 21.5773 40.7229 21.7273 40.9088 21.7273C40.7229 21.7273 40.572 21.8774 40.572 22.0625C40.572 21.8774 40.4211 21.7273 40.2352 21.7273C40.4211 21.7273 40.572 21.5773 40.572 21.3922Z"
        fill="#141E46" />
    <path fill-rule="evenodd" clip-rule="evenodd"
        d="M34.2736 12.7456C34.2736 12.9306 34.4393 13.0807 34.6441 13.0807C34.4393 13.0807 34.2736 13.2307 34.2736 13.4158C34.2736 13.2307 34.1079 13.0807 33.9031 13.0807C34.1079 13.0807 34.2736 12.9306 34.2736 12.7456Z"
        fill="#141E46" />
    <path fill-rule="evenodd" clip-rule="evenodd"
        d="M39.629 11.0262C39.629 13.1733 41.3784 14.9138 43.536 14.9138C41.3784 14.9138 39.629 16.6544 39.629 18.8015C39.629 16.6544 37.8795 14.9138 35.7219 14.9138C37.8795 14.9138 39.629 13.1733 39.629 11.0262Z"
        fill="#141E46" />
    <path fill-rule="evenodd" clip-rule="evenodd"
        d="M43.1992 10.2655C43.1992 10.4691 43.3501 10.6342 43.536 10.6342C43.3501 10.6342 43.1992 10.7993 43.1992 11.0028C43.1992 10.7993 43.0483 10.6342 42.8624 10.6342C43.0483 10.6342 43.1992 10.4691 43.1992 10.2655Z"
        fill="#141E46" />
    <path fill-rule="evenodd" clip-rule="evenodd"
        d="M21.3063 13.4829H29.4114L34.981 19.2565L30.8186 19.3098L30.8395 19.108L30.8233 18.9504L30.7661 19.5192C30.4293 21.1619 28.9742 22.3976 27.2295 22.3976C25.2363 22.3976 23.6202 20.7836 23.6202 18.7928C23.6202 17.2996 24.5289 16.0184 25.825 15.4712L26.4542 15.276L26.1686 15.3048C25.4094 15.4599 24.731 15.836 24.2036 16.3629L24.1167 16.4675L21.3063 13.4829Z"
        fill="#29C65F" />
    <path fill-rule="evenodd" clip-rule="evenodd"
        d="M33.3292 20.688C33.3312 20.4053 33.2073 20.182 33.0988 20.0403C33.1824 20.0006 33.2457 19.922 33.2618 19.8239C33.2848 19.6827 33.2005 19.5491 33.0699 19.5034L33.0645 19.5354C33.0597 19.5659 33.0342 19.5909 33.0032 19.5913C32.9634 19.5919 32.9345 19.5567 32.9405 19.5191L32.9452 19.4884C32.8159 19.5006 32.7061 19.5979 32.6846 19.7316C32.659 19.8902 32.7674 20.0395 32.9264 20.065C32.9432 20.0676 32.9594 20.0685 32.9756 20.0684C33.0153 20.4403 32.9405 20.5829 32.8523 20.6385C32.566 20.8192 32.0217 20.1608 31.3427 20.3168C31.144 20.3624 30.9964 20.4634 30.9028 20.5411C30.9163 20.5782 30.9304 20.6161 30.9452 20.6545C31.0234 20.5883 31.1574 20.5013 31.344 20.4777C31.5926 20.446 31.7785 20.5474 31.8358 20.5819C31.8371 20.5828 31.8371 20.583 31.8351 20.5823C31.7846 20.56 31.5906 20.4825 31.3838 20.5645C31.2315 20.6247 31.1136 20.755 31.0557 20.9179C31.0894 20.9923 31.2019 21.2145 31.2201 21.2478C31.2767 21.1691 31.3663 21.1205 31.3824 21.1115C31.5609 21.015 31.7489 21.0812 31.788 21.0959V21.0963C31.7226 21.1064 31.635 21.1306 31.5576 21.1932C31.4404 21.2879 31.4067 21.4207 31.373 21.5039C31.4457 21.5578 31.9395 21.9025 32.5175 21.7102C32.925 21.5748 33.3245 21.1899 33.3292 20.688Z"
        fill="#106E38" />
    <path fill-rule="evenodd" clip-rule="evenodd"
        d="M33.1419 18.8786L33.061 19.6087L33.1419 18.8786Z" fill="#41B06E" />
    <path fill-rule="evenodd" clip-rule="evenodd"
        d="M35.183 28.5307C35.183 26.9204 36.4952 25.615 38.1133 25.615C39.7313 25.615 41.0436 26.9204 41.0436 28.5307C41.0436 30.141 39.7313 31.4464 38.1133 31.4464C36.4952 31.4464 35.183 30.141 35.183 28.5307Z"
        fill="black" fill-opacity="0.870588" />
    <path fill-rule="evenodd" clip-rule="evenodd"
        d="M44.8496 27.0896C44.8496 27.2376 44.985 27.3577 45.1527 27.3577C44.985 27.3577 44.8496 27.4777 44.8496 27.6258C44.8496 27.4777 44.7142 27.3577 44.5465 27.3577C44.7142 27.3577 44.8496 27.2376 44.8496 27.0896Z"
        fill="#141E46" />
    <path fill-rule="evenodd" clip-rule="evenodd"
        d="M43.9402 23.8052C43.9402 23.9718 44.0608 24.1068 44.2096 24.1068C44.0608 24.1068 43.9402 24.2419 43.9402 24.4085C43.9402 24.2419 43.8196 24.1068 43.6707 24.1068C43.8196 24.1068 43.9402 23.9718 43.9402 23.8052Z"
        fill="#141E46" />
    <path fill-rule="evenodd" clip-rule="evenodd"
        d="M33.7684 24.4085H40.1167L44.4791 28.9232L41.2194 28.9648L41.2349 28.8071L41.2228 28.6838L41.1776 29.1286C40.9142 30.4131 39.7738 31.3794 38.4077 31.3794C36.8462 31.3794 35.5804 30.1174 35.5804 28.5606C35.5804 27.393 36.2925 26.3912 37.3076 25.9632L37.8007 25.8106L37.5771 25.8331C36.9823 25.9544 36.4508 26.2485 36.0372 26.6605L35.9698 26.7423L33.7684 24.4085Z"
        fill="#F9A419" />
    <path fill-rule="evenodd" clip-rule="evenodd"
        d="M43.2308 30.0868C43.2329 29.8642 43.1352 29.6884 43.0496 29.5769C43.1156 29.5455 43.1655 29.4837 43.1776 29.4065C43.1958 29.2953 43.1298 29.1901 43.0267 29.1542L43.0227 29.1793C43.0186 29.2033 42.9991 29.2231 42.9748 29.2234C42.9432 29.2238 42.9203 29.1961 42.925 29.1665L42.9284 29.1423C42.8266 29.1519 42.7404 29.2285 42.7229 29.3338C42.7027 29.4587 42.7882 29.5762 42.9142 29.5962C42.927 29.5983 42.9398 29.5991 42.9526 29.5989C42.9836 29.8918 42.925 30.004 42.8556 30.0478C42.6306 30.19 42.2015 29.6717 41.6673 29.7945C41.511 29.8304 41.3945 29.91 41.3204 29.9711C41.3312 30.0003 41.3426 30.0302 41.3541 30.0604C41.4161 30.0082 41.5212 29.9398 41.668 29.9212C41.864 29.8963 42.0102 29.9761 42.0553 30.0032C42.056 30.004 42.056 30.0041 42.0547 30.0035C42.0149 29.986 41.862 29.9249 41.699 29.9895C41.5791 30.037 41.4868 30.1395 41.441 30.2677C41.4679 30.3263 41.5562 30.5013 41.5703 30.5275C41.6148 30.4655 41.6855 30.4273 41.6983 30.4202C41.8391 30.3441 41.9873 30.3963 42.0176 30.4079V30.4082C41.9657 30.4162 41.897 30.4352 41.8364 30.4845C41.7441 30.5591 41.7172 30.6635 41.6909 30.7291C41.7482 30.7715 42.1369 31.043 42.5922 30.8915C42.9129 30.785 43.2275 30.4819 43.2308 30.0868Z"
        fill="#FBAF44" />
    <path fill-rule="evenodd" clip-rule="evenodd"
        d="M43.0948 28.6648L43.031 29.2395L43.0948 28.6648Z" fill="#41B06E" />
    <path fill-rule="evenodd" clip-rule="evenodd"
        d="M0 0.117832C0 0.052754 0.129694 0 0.28977 0H153.71C153.87 0 154 0.052754 154 0.117832V50.8822C154 50.9472 153.87 51 153.71 51H0.28977C0.129694 51 0 50.9472 0 50.8822V0.117832Z"
        fill="" />
    <path fill-rule="evenodd" clip-rule="evenodd"
        d="M23.1251 18.7111C23.1251 16.675 24.7835 15.0245 26.83 15.0245C28.8765 15.0245 30.535 16.675 30.535 18.7111C30.535 20.7471 28.8765 22.3976 26.83 22.3976C24.7835 22.3976 23.1251 20.7471 23.1251 18.7111Z"
        fill="black" fill-opacity="0.870588" />
    <path
        d="M25.2342 26.2386L25.2411 26.243C27.377 27.3888 29.6261 27.5193 32.118 27.0896L32.3875 27.0561L31.5454 27.7599C30.5047 28.6675 29.8391 29.824 29.2214 31.0442L29.0193 31.5134L29.1053 31.9024L29.0551 32.0161C29.0394 32.0564 29.024 32.0968 29.0089 32.1372L29.3853 32.4419C31.0686 33.6754 33.0764 34.5205 35.2925 34.8245C39.7248 35.4326 43.9426 33.7333 46.7212 30.6496L46.9041 30.3069L46.2372 32.1402C43.8911 37.6608 38.9238 41.8088 32.8887 43.0382L31.107 43.3088L31.1076 43.3104C30.4745 43.3729 30.2754 43.3774 29.6256 43.3774C19.2302 43.3774 10.865 35.2395 10.865 25.1182C10.865 16.2619 17.3099 8.82403 25.8869 7.11518L26.6953 7.01463L26.4595 7.08166C20.8727 9.23625 18.1696 15.4297 20.383 20.8691C21.2129 22.9088 22.6201 24.5581 24.3505 25.7093L25.2342 26.2386Z"
        fill="black" />
    <path
        d="M25.3177 25.9339L25.3103 25.9296L24.4575 25.4076C22.7882 24.2722 21.4295 22.6455 20.6286 20.6337C18.4925 15.2689 21.1325 9.19719 26.5235 7.07212L26.7007 7.00235L25.9475 7.11673C17.67 8.80214 11.443 16.0898 11.443 24.8245C11.443 34.807 19.5764 42.8995 29.6087 42.8995C30.2352 42.8995 30.8549 42.8679 31.4659 42.8062L31.5137 42.7989L30.9977 42.278C29.6478 40.7792 28.7182 38.877 28.4225 36.7333C28.1759 34.9468 28.3989 33.2039 28.9977 31.6279L29.0462 31.5157L29.4006 30.7033C29.9967 29.4997 30.8206 28.4188 31.8249 27.5236L32.4413 27.0253L32.2116 27.0777C29.8074 27.5015 27.3783 27.0641 25.3177 25.9339Z"
        fill="#29C65F" />
    <path fill-rule="evenodd" clip-rule="evenodd"
        d="M46.9345 30.2616L46.3464 31.86C44.048 37.2662 39.1817 41.3284 33.2692 42.5322L31.5137 42.7989L30.9977 42.278C29.6478 40.7792 28.7182 38.877 28.4225 36.7333C28.1759 34.9468 28.3989 33.2039 28.9977 31.6279L29.0462 31.5157L29.8371 32.1555C31.4861 33.3635 33.4531 34.191 35.6242 34.4888C39.9671 35.0843 44.0985 33.4201 46.8206 30.4003L46.9345 30.2616Z"
        fill="#F9A419" />
    <path fill-rule="evenodd" clip-rule="evenodd"
        d="M29.3898 5.64056C29.3898 6.3254 29.9327 6.88058 30.6023 6.88058C29.9327 6.88058 29.3898 7.43576 29.3898 8.12061C29.3898 7.43576 28.8469 6.88058 28.1773 6.88058C28.8469 6.88058 29.3898 6.3254 29.3898 5.64056Z"
        fill="#141E46" />
    <path fill-rule="evenodd" clip-rule="evenodd"
        d="M35.3851 16.9013C35.3851 17.0864 35.536 17.2364 35.7219 17.2364C35.536 17.2364 35.3851 17.3865 35.3851 17.5716C35.3851 17.3865 35.2342 17.2364 35.0483 17.2364C35.2342 17.2364 35.3851 17.0864 35.3851 16.9013Z"
        fill="#141E46" />
    <path fill-rule="evenodd" clip-rule="evenodd"
        d="M46.9379 26.6438C46.9379 27.3286 47.4956 27.8838 48.1841 27.8838C47.4956 27.8838 46.9379 28.439 46.9379 29.1238C46.9379 28.439 46.3801 27.8838 45.6916 27.8838C46.3801 27.8838 46.9379 27.3286 46.9379 26.6438Z"
        fill="#141E46" />
    <path fill-rule="evenodd" clip-rule="evenodd"
        d="M44.3107 24.4755C44.3107 24.6605 44.4764 24.8106 44.6812 24.8106C44.4764 24.8106 44.3107 24.9607 44.3107 25.1458C44.3107 24.9607 44.145 24.8106 43.9402 24.8106C44.145 24.8106 44.3107 24.6605 44.3107 24.4755Z"
        fill="#141E46" />
    <path fill-rule="evenodd" clip-rule="evenodd"
        d="M40.572 21.3922C40.572 21.5773 40.7229 21.7273 40.9088 21.7273C40.7229 21.7273 40.572 21.8774 40.572 22.0625C40.572 21.8774 40.4211 21.7273 40.2352 21.7273C40.4211 21.7273 40.572 21.5773 40.572 21.3922Z"
        fill="#141E46" />
    <path fill-rule="evenodd" clip-rule="evenodd"
        d="M34.2736 12.7456C34.2736 12.9306 34.4393 13.0807 34.6441 13.0807C34.4393 13.0807 34.2736 13.2307 34.2736 13.4158C34.2736 13.2307 34.1079 13.0807 33.9031 13.0807C34.1079 13.0807 34.2736 12.9306 34.2736 12.7456Z"
        fill="#141E46" />
    <path fill-rule="evenodd" clip-rule="evenodd"
        d="M39.629 11.0262C39.629 13.1733 41.3784 14.9138 43.536 14.9138C41.3784 14.9138 39.629 16.6544 39.629 18.8015C39.629 16.6544 37.8795 14.9138 35.7219 14.9138C37.8795 14.9138 39.629 13.1733 39.629 11.0262Z"
        fill="#141E46" />
    <path fill-rule="evenodd" clip-rule="evenodd"
        d="M43.1992 10.2655C43.1992 10.4691 43.3501 10.6342 43.536 10.6342C43.3501 10.6342 43.1992 10.7993 43.1992 11.0028C43.1992 10.7993 43.0483 10.6342 42.8624 10.6342C43.0483 10.6342 43.1992 10.4691 43.1992 10.2655Z"
        fill="#141E46" />
    <path fill-rule="evenodd" clip-rule="evenodd"
        d="M21.3063 13.4829H29.4114L34.981 19.2565L30.8186 19.3098L30.8395 19.108L30.8233 18.9504L30.7661 19.5192C30.4293 21.1619 28.9742 22.3976 27.2295 22.3976C25.2363 22.3976 23.6202 20.7836 23.6202 18.7928C23.6202 17.2996 24.5289 16.0184 25.825 15.4712L26.4542 15.276L26.1686 15.3048C25.4094 15.4599 24.731 15.836 24.2036 16.3629L24.1167 16.4675L21.3063 13.4829Z"
        fill="#29C65F" />
    <path fill-rule="evenodd" clip-rule="evenodd"
        d="M33.3292 20.688C33.3312 20.4053 33.2073 20.182 33.0988 20.0403C33.1824 20.0006 33.2457 19.922 33.2618 19.8239C33.2848 19.6827 33.2005 19.5491 33.0699 19.5034L33.0645 19.5354C33.0597 19.5659 33.0342 19.5909 33.0032 19.5913C32.9634 19.5919 32.9345 19.5567 32.9405 19.5191L32.9452 19.4884C32.8159 19.5006 32.7061 19.5979 32.6846 19.7316C32.659 19.8902 32.7674 20.0395 32.9264 20.065C32.9432 20.0676 32.9594 20.0685 32.9756 20.0684C33.0153 20.4403 32.9405 20.5829 32.8523 20.6385C32.566 20.8192 32.0217 20.1608 31.3427 20.3168C31.144 20.3624 30.9964 20.4634 30.9028 20.5411C30.9163 20.5782 30.9304 20.6161 30.9452 20.6545C31.0234 20.5883 31.1574 20.5013 31.344 20.4777C31.5926 20.446 31.7785 20.5474 31.8358 20.5819C31.8371 20.5828 31.8371 20.583 31.8351 20.5823C31.7846 20.56 31.5906 20.4825 31.3838 20.5645C31.2315 20.6247 31.1136 20.755 31.0557 20.9179C31.0894 20.9923 31.2019 21.2145 31.2201 21.2478C31.2767 21.1691 31.3663 21.1205 31.3824 21.1115C31.5609 21.015 31.7489 21.0812 31.788 21.0959V21.0963C31.7226 21.1064 31.635 21.1306 31.5576 21.1932C31.4404 21.2879 31.4067 21.4207 31.373 21.5039C31.4457 21.5578 31.9395 21.9025 32.5175 21.7102C32.925 21.5748 33.3245 21.1899 33.3292 20.688Z"
        fill="#106E38" />
    <path fill-rule="evenodd" clip-rule="evenodd"
        d="M33.1419 18.8786L33.061 19.6087L33.1419 18.8786Z" fill="#41B06E" />
    <path fill-rule="evenodd" clip-rule="evenodd"
        d="M35.183 28.5307C35.183 26.9204 36.4952 25.615 38.1133 25.615C39.7313 25.615 41.0436 26.9204 41.0436 28.5307C41.0436 30.141 39.7313 31.4464 38.1133 31.4464C36.4952 31.4464 35.183 30.141 35.183 28.5307Z"
        fill="black" fill-opacity="0.870588" />
    <path fill-rule="evenodd" clip-rule="evenodd"
        d="M44.8496 27.0896C44.8496 27.2376 44.985 27.3577 45.1527 27.3577C44.985 27.3577 44.8496 27.4777 44.8496 27.6258C44.8496 27.4777 44.7142 27.3577 44.5465 27.3577C44.7142 27.3577 44.8496 27.2376 44.8496 27.0896Z"
        fill="#141E46" />
    <path fill-rule="evenodd" clip-rule="evenodd"
        d="M43.9402 23.8052C43.9402 23.9718 44.0608 24.1068 44.2096 24.1068C44.0608 24.1068 43.9402 24.2419 43.9402 24.4085C43.9402 24.2419 43.8196 24.1068 43.6707 24.1068C43.8196 24.1068 43.9402 23.9718 43.9402 23.8052Z"
        fill="#141E46" />
    <path fill-rule="evenodd" clip-rule="evenodd"
        d="M33.7684 24.4085H40.1167L44.4791 28.9232L41.2194 28.9648L41.2349 28.8071L41.2228 28.6838L41.1776 29.1286C40.9142 30.4131 39.7738 31.3794 38.4077 31.3794C36.8462 31.3794 35.5804 30.1174 35.5804 28.5606C35.5804 27.393 36.2925 26.3912 37.3076 25.9632L37.8007 25.8106L37.5771 25.8331C36.9823 25.9544 36.4508 26.2485 36.0372 26.6605L35.9698 26.7423L33.7684 24.4085Z"
        fill="#F9A419" />
    <path fill-rule="evenodd" clip-rule="evenodd"
        d="M43.2308 30.0868C43.2329 29.8642 43.1352 29.6884 43.0496 29.5769C43.1156 29.5455 43.1655 29.4837 43.1776 29.4065C43.1958 29.2953 43.1298 29.1901 43.0267 29.1542L43.0227 29.1793C43.0186 29.2033 42.9991 29.2231 42.9748 29.2234C42.9432 29.2238 42.9203 29.1961 42.925 29.1665L42.9284 29.1423C42.8266 29.1519 42.7404 29.2285 42.7229 29.3338C42.7027 29.4587 42.7882 29.5762 42.9142 29.5962C42.927 29.5983 42.9398 29.5991 42.9526 29.5989C42.9836 29.8918 42.925 30.004 42.8556 30.0478C42.6306 30.19 42.2015 29.6717 41.6673 29.7945C41.511 29.8304 41.3945 29.91 41.3204 29.9711C41.3312 30.0003 41.3426 30.0302 41.3541 30.0604C41.4161 30.0082 41.5212 29.9398 41.668 29.9212C41.864 29.8963 42.0102 29.9761 42.0553 30.0032C42.056 30.004 42.056 30.0041 42.0547 30.0035C42.0149 29.986 41.862 29.9249 41.699 29.9895C41.5791 30.037 41.4868 30.1395 41.441 30.2677C41.4679 30.3263 41.5562 30.5013 41.5703 30.5275C41.6148 30.4655 41.6855 30.4273 41.6983 30.4202C41.8391 30.3441 41.9873 30.3963 42.0176 30.4079V30.4082C41.9657 30.4162 41.897 30.4352 41.8364 30.4845C41.7441 30.5591 41.7172 30.6635 41.6909 30.7291C41.7482 30.7715 42.1369 31.043 42.5922 30.8915C42.9129 30.785 43.2275 30.4819 43.2308 30.0868Z"
        fill="#FBAF44" />
    <path fill-rule="evenodd" clip-rule="evenodd"
        d="M43.0948 28.6648L43.031 29.2395L43.0948 28.6648Z" fill="#41B06E" />
    <path
        d="M57.5729 11.4832C58.7964 11.4832 59.8655 11.7245 60.7804 12.2071C61.6953 12.6897 62.4007 13.3697 62.8967 14.2471C63.4038 15.1135 63.6573 16.1171 63.6573 17.2577C63.6573 18.3874 63.4038 19.391 62.8967 20.2684C62.4007 21.1458 61.6898 21.8258 60.7639 22.3084C59.849 22.791 58.7853 23.0323 57.5729 23.0323H53.2245V11.4832H57.5729ZM57.391 20.5974C58.4602 20.5974 59.2924 20.3068 59.8876 19.7255C60.4828 19.1442 60.7804 18.3216 60.7804 17.2577C60.7804 16.1939 60.4828 15.3658 59.8876 14.7735C59.2924 14.1813 58.4602 13.8852 57.391 13.8852H56.0518V20.5974H57.391Z"
        fill="black" />
    <path
        d="M71.3217 23.0323L68.9078 18.6726H68.2299V23.0323H65.4026V11.4832H70.1478C71.0627 11.4832 71.8398 11.6423 72.4791 11.9603C73.1294 12.2784 73.6144 12.7171 73.934 13.2765C74.2537 13.8248 74.4135 14.439 74.4135 15.119C74.4135 15.8868 74.1931 16.5723 73.7522 17.1755C73.3223 17.7787 72.683 18.2064 71.8342 18.4587L74.5127 23.0323H71.3217ZM68.2299 16.6819H69.9825C70.5005 16.6819 70.8863 16.5558 71.1398 16.3035C71.4044 16.0513 71.5366 15.6948 71.5366 15.2342C71.5366 14.7955 71.4044 14.45 71.1398 14.1977C70.8863 13.9455 70.5005 13.8194 69.9825 13.8194H68.2299V16.6819Z"
        fill="black" />
    <path
        d="M79.1809 13.7371V16.0732H82.9671V18.2448H79.1809V20.7784H83.4631V23.0323H76.3536V11.4832H83.4631V13.7371H79.1809Z"
        fill="black" />
    <path
        d="M92.6892 20.9923H88.3574L87.663 23.0323H84.7034L88.903 11.4832H92.1767L96.3763 23.0323H93.3837L92.6892 20.9923ZM91.9617 18.8206L90.5233 14.5926L89.1014 18.8206H91.9617Z"
        fill="black" />
    <path
        d="M110.964 11.4832V23.0323H108.137V16.1061L105.541 23.0323H103.259L100.647 16.0897V23.0323H97.8197V11.4832H101.16L104.417 19.4787L107.641 11.4832H110.964Z"
        fill="black" />
    <path
        d="M61.1583 36.5038H56.8265L56.1321 38.5438H53.1725L57.3721 26.9947H60.6458L64.8453 38.5438H61.8527L61.1583 36.5038ZM60.4308 34.3322L58.9924 30.1041L57.5705 34.3322H60.4308Z"
        fill="black" />
    <path
        d="M65.644 32.7528C65.644 31.6122 65.892 30.5976 66.388 29.7093C66.884 28.8099 67.5729 28.1135 68.4547 27.6199C69.3475 27.1154 70.3561 26.8631 71.4804 26.8631C72.8582 26.8631 74.0376 27.2251 75.0186 27.9489C75.9996 28.6728 76.6555 29.6599 76.9861 30.9102H73.8778C73.6463 30.4276 73.3157 30.0602 72.8858 29.808C72.4669 29.5557 71.9874 29.4296 71.4473 29.4296C70.5766 29.4296 69.8711 29.7312 69.331 30.3344C68.7909 30.9376 68.5209 31.7438 68.5209 32.7528C68.5209 33.7618 68.7909 34.568 69.331 35.1712C69.8711 35.7744 70.5766 36.076 71.4473 36.076C71.9874 36.076 72.4669 35.9499 72.8858 35.6976C73.3157 35.4454 73.6463 35.078 73.8778 34.5954H76.9861C76.6555 35.8457 75.9996 36.8328 75.0186 37.5567C74.0376 38.2696 72.8582 38.626 71.4804 38.626C70.3561 38.626 69.3475 38.3793 68.4547 37.8857C67.5729 37.3812 66.884 36.6847 66.388 35.7964C65.892 34.908 65.644 33.8935 65.644 32.7528Z"
        fill="black" />
    <path
        d="M85.9428 36.5038H81.6109L80.9165 38.5438H77.957L82.1566 26.9947H85.4302L89.6298 38.5438H86.6372L85.9428 36.5038ZM85.2153 34.3322L83.7769 30.1041L82.355 34.3322H85.2153Z"
        fill="black" />
    <path
        d="M95.2563 26.9947C96.4798 26.9947 97.549 27.236 98.4639 27.7186C99.3787 28.2012 100.084 28.8812 100.58 29.7586C101.087 30.6251 101.341 31.6286 101.341 32.7693C101.341 33.8989 101.087 34.9025 100.58 35.7799C100.084 36.6573 99.3732 37.3373 98.4473 37.8199C97.5325 38.3025 96.4688 38.5438 95.2563 38.5438H90.9079V26.9947H95.2563ZM95.0744 36.1089C96.1436 36.1089 96.9758 35.8183 97.571 35.237C98.1663 34.6557 98.4639 33.8331 98.4639 32.7693C98.4639 31.7054 98.1663 30.8773 97.571 30.2851C96.9758 29.6928 96.1436 29.3967 95.0744 29.3967H93.7352V36.1089H95.0744Z"
        fill="black" />
    <path
        d="M105.748 29.2486V31.5847H109.534V33.7564H105.748V36.2899H110.03V38.5438H102.921V26.9947H110.03V29.2486H105.748Z"
        fill="black" />
    <path
        d="M125.01 26.9947V38.5438H122.183V31.6176L119.587 38.5438H117.305L114.693 31.6012V38.5438H111.866V26.9947H115.206L118.463 34.9902L121.687 26.9947H125.01Z"
        fill="black" />
    <path
        d="M136.997 26.9947L132.979 34.727V38.5438H130.152V34.727L126.134 26.9947H129.341L131.59 31.8315L133.822 26.9947H136.997Z"
        fill="black" />
</svg>
