<svg width="78" height="85" viewBox="0 0 78 85" fill="none" xmlns="http://www.w3.org/2000/svg">
<rect width="77.6107" height="18.4161" rx="5" fill="#2EC56E"/>
<path fill-rule="evenodd" clip-rule="evenodd" d="M21.4591 4.94197C19.7734 4.94197 19.7734 7.68199 21.4591 7.68199C21.5086 7.68199 21.5525 7.68199 21.6019 7.6765H35.5053C35.5547 7.68199 35.5986 7.68199 35.648 7.68199C37.3393 7.68199 37.3393 4.94197 35.648 4.94197C35.5986 4.94197 35.5547 4.94198 35.5053 4.94747H21.6019C21.5525 4.94198 21.5086 4.94197 21.4591 4.94197Z" fill="white"/>
<path fill-rule="evenodd" clip-rule="evenodd" d="M21.4429 10.9821C19.7736 10.9821 19.7736 13.173 21.4429 13.173C21.4923 13.173 21.5362 13.173 21.5856 13.1675H48.7003C48.7498 13.173 48.7937 13.173 48.8431 13.173C50.5179 13.173 50.5179 10.9821 48.8431 10.9821C48.7937 10.9821 48.7498 10.9876 48.7003 10.9876H21.5856C21.5362 10.9876 21.4923 10.9821 21.4429 10.9821Z" fill="white"/>
<path fill-rule="evenodd" clip-rule="evenodd" d="M13.0194 3.84924C12.981 3.84924 12.937 3.84925 12.8821 3.85474H6.73769C6.00189 3.85474 5.49121 4.45323 5.49121 5.12863V13.5464C5.49121 14.2218 6.00189 14.8203 6.73769 14.8203H15.3037C15.9626 14.7489 16.4733 14.2218 16.4733 13.4751V11.2182C16.3964 10.466 15.8144 10.0871 15.2378 10.0871C14.6558 10.0871 14.0902 10.466 14.0572 11.2182V12.2725H7.90728V6.40809H12.8821C12.937 6.40809 12.981 6.41358 13.0194 6.41358C14.6667 6.41358 14.6667 3.84924 13.0194 3.84924Z" fill="#F9A419"/>
<path fill-rule="evenodd" clip-rule="evenodd" d="M16.8521 3.8437C16.5391 3.8437 16.2096 3.97551 15.9351 4.27752L11.7069 8.54407L10.4276 7.17131C10.1475 6.86381 9.82358 6.74299 9.5051 6.74299C8.54966 6.74299 7.69306 7.90706 8.54417 8.83504L10.7241 11.1523C10.9547 11.3665 11.3336 11.5092 11.7069 11.5092C11.7783 11.5256 11.8333 11.5312 11.8992 11.5312C12.1902 11.5312 12.4373 11.3884 12.6899 11.1523L17.813 5.94125C18.6641 5.01876 17.8075 3.8437 16.8521 3.8437Z" fill="#F9A419"/>
<rect y="22.3624" width="77.6107" height="17.7584" rx="5" fill="#2EC56E"/>
<path fill-rule="evenodd" clip-rule="evenodd" d="M21.4591 27.1233C19.7734 27.1233 19.7734 29.8633 21.4591 29.8633C21.5086 29.8633 21.5525 29.8633 21.6019 29.8578H35.5053C35.5547 29.8633 35.5986 29.8633 35.648 29.8633C37.3393 29.8633 37.3393 27.1233 35.648 27.1233C35.5986 27.1233 35.5547 27.1233 35.5053 27.1287H21.6019C21.5525 27.1233 21.5086 27.1233 21.4591 27.1233Z" fill="white"/>
<path fill-rule="evenodd" clip-rule="evenodd" d="M21.4429 33.1634C19.7736 33.1634 19.7736 35.3543 21.4429 35.3543C21.4923 35.3543 21.5362 35.3543 21.5856 35.3488H48.7003C48.7498 35.3543 48.7937 35.3543 48.8431 35.3543C50.5179 35.3543 50.5179 33.1634 48.8431 33.1634C48.7937 33.1634 48.7498 33.1689 48.7003 33.1689H21.5856C21.5362 33.1689 21.4923 33.1634 21.4429 33.1634Z" fill="white"/>
<path fill-rule="evenodd" clip-rule="evenodd" d="M13.0194 26.0305C12.981 26.0305 12.937 26.0305 12.8821 26.036H6.73769C6.00189 26.036 5.49121 26.6345 5.49121 27.3099V35.7277C5.49121 36.4031 6.00189 37.0016 6.73769 37.0016H15.3037C15.9626 36.9302 16.4733 36.4031 16.4733 35.6563V33.3995C16.3964 32.6473 15.8144 32.2683 15.2378 32.2683C14.6558 32.2683 14.0902 32.6473 14.0572 33.3995V34.4538H7.90728V28.5894H12.8821C12.937 28.5894 12.981 28.5949 13.0194 28.5949C14.6667 28.5949 14.6667 26.0305 13.0194 26.0305Z" fill="#F9A419"/>
<path fill-rule="evenodd" clip-rule="evenodd" d="M16.8521 26.0251C16.5391 26.0251 16.2096 26.1569 15.9351 26.4589L11.7069 30.7254L10.4276 29.3527C10.1475 29.0452 9.82358 28.9244 9.5051 28.9244C8.54966 28.9244 7.69306 30.0884 8.54417 31.0164L10.7241 33.3337C10.9547 33.5478 11.3336 33.6905 11.7069 33.6905C11.7783 33.707 11.8333 33.7125 11.8992 33.7125C12.1902 33.7125 12.4373 33.5698 12.6899 33.3337L17.813 28.1226C18.6641 27.2001 17.8075 26.0251 16.8521 26.0251Z" fill="#F9A419"/>
<rect y="44.0671" width="77.6107" height="18.4161" rx="5" fill="#2EC56E"/>
<path fill-rule="evenodd" clip-rule="evenodd" d="M21.4591 49.3047C19.7734 49.3047 19.7734 52.0447 21.4591 52.0447C21.5086 52.0447 21.5525 52.0447 21.6019 52.0392H35.5053C35.5547 52.0447 35.5986 52.0447 35.648 52.0447C37.3393 52.0447 37.3393 49.3047 35.648 49.3047C35.5986 49.3047 35.5547 49.3047 35.5053 49.3102H21.6019C21.5525 49.3047 21.5086 49.3047 21.4591 49.3047Z" fill="white"/>
<path fill-rule="evenodd" clip-rule="evenodd" d="M21.4429 55.3448C19.7736 55.3448 19.7736 57.5358 21.4429 57.5358C21.4923 57.5358 21.5362 57.5357 21.5856 57.5303H48.7003C48.7498 57.5357 48.7937 57.5358 48.8431 57.5358C50.5179 57.5358 50.5179 55.3448 48.8431 55.3448C48.7937 55.3448 48.7498 55.3503 48.7003 55.3503H21.5856C21.5362 55.3503 21.4923 55.3448 21.4429 55.3448Z" fill="white"/>
<path fill-rule="evenodd" clip-rule="evenodd" d="M13.0194 48.2121C12.981 48.2121 12.937 48.2121 12.8821 48.2176H6.73769C6.00189 48.2176 5.49121 48.8161 5.49121 49.4915V57.9093C5.49121 58.5847 6.00189 59.1832 6.73769 59.1832H15.3037C15.9626 59.1118 16.4733 58.5847 16.4733 57.8379V55.5811C16.3964 54.8288 15.8144 54.4499 15.2378 54.4499C14.6558 54.4499 14.0902 54.8288 14.0572 55.5811V56.6353H7.90728V50.7709H12.8821C12.937 50.7709 12.981 50.7764 13.0194 50.7764C14.6667 50.7764 14.6667 48.2121 13.0194 48.2121Z" fill="#F9A419"/>
<path fill-rule="evenodd" clip-rule="evenodd" d="M16.8521 48.2065C16.5391 48.2065 16.2096 48.3383 15.9351 48.6403L11.7069 52.9069L10.4276 51.5341C10.1475 51.2266 9.82358 51.1058 9.5051 51.1058C8.54966 51.1058 7.69306 52.2699 8.54417 53.1979L10.7241 55.5151C10.9547 55.7293 11.3336 55.872 11.7069 55.872C11.7783 55.8885 11.8333 55.894 11.8992 55.894C12.1902 55.894 12.4373 55.7513 12.6899 55.5151L17.813 50.3041C18.6641 49.3816 17.8075 48.2065 16.8521 48.2065Z" fill="#F9A419"/>
<rect y="66.4295" width="77.6107" height="18.4161" rx="5" fill="#2EC56E"/>
<path fill-rule="evenodd" clip-rule="evenodd" d="M21.4591 71.6671C19.7734 71.6671 19.7734 74.4071 21.4591 74.4071C21.5086 74.4071 21.5525 74.4071 21.6019 74.4016H35.5053C35.5547 74.4071 35.5986 74.4071 35.648 74.4071C37.3393 74.4071 37.3393 71.6671 35.648 71.6671C35.5986 71.6671 35.5547 71.6671 35.5053 71.6726H21.6019C21.5525 71.6671 21.5086 71.6671 21.4591 71.6671Z" fill="white"/>
<path fill-rule="evenodd" clip-rule="evenodd" d="M21.4429 77.7073C19.7736 77.7073 19.7736 79.8982 21.4429 79.8982C21.4923 79.8982 21.5362 79.8982 21.5856 79.8927H48.7003C48.7498 79.8982 48.7937 79.8982 48.8431 79.8982C50.5179 79.8982 50.5179 77.7073 48.8431 77.7073C48.7937 77.7073 48.7498 77.7127 48.7003 77.7127H21.5856C21.5362 77.7127 21.4923 77.7073 21.4429 77.7073Z" fill="white"/>
<path fill-rule="evenodd" clip-rule="evenodd" d="M13.0194 70.5745C12.981 70.5745 12.937 70.5745 12.8821 70.58H6.73769C6.00189 70.58 5.49121 71.1785 5.49121 71.8539V80.2717C5.49121 80.9471 6.00189 81.5456 6.73769 81.5456H15.3037C15.9626 81.4742 16.4733 80.9471 16.4733 80.2003V77.9435C16.3964 77.1912 15.8144 76.8123 15.2378 76.8123C14.6558 76.8123 14.0902 77.1912 14.0572 77.9435V78.9977H7.90728V73.1333H12.8821C12.937 73.1333 12.981 73.1388 13.0194 73.1388C14.6667 73.1388 14.6667 70.5745 13.0194 70.5745Z" fill="#F9A419"/>
<path fill-rule="evenodd" clip-rule="evenodd" d="M16.8521 70.5689C16.5391 70.5689 16.2096 70.7007 15.9351 71.0028L11.7069 75.2693L10.4276 73.8965C10.1475 73.589 9.82358 73.4682 9.5051 73.4682C8.54966 73.4682 7.69306 74.6323 8.54417 75.5603L10.7241 77.8775C10.9547 78.0917 11.3336 78.2344 11.7069 78.2344C11.7783 78.2509 11.8333 78.2564 11.8992 78.2564C12.1902 78.2564 12.4373 78.1137 12.6899 77.8775L17.813 72.6665C18.6641 71.744 17.8075 70.5689 16.8521 70.5689Z" fill="#F9A419"/>
</svg>
