<svg width="73" height="87" viewBox="0 0 73 87" fill="none" xmlns="http://www.w3.org/2000/svg">
    <path fill-rule="evenodd" clip-rule="evenodd"
        d="M15.9463 0.00408936L13.5684 20.3496H57.6632L56.5139 0.00408936H15.9463Z"
        fill="#156738" />
    <path fill-rule="evenodd" clip-rule="evenodd"
        d="M16.0437 0.00408936L4.79596 5.61135C0.863762 7.56049 -0.67559 12.3156 1.17178 16.2885L12.7309 40.1294L15.659 46.1295L33.9211 37.0907L29.4496 27.6625L16.0437 0.00408936Z"
        fill="#2EC56E" />
    <path fill-rule="evenodd" clip-rule="evenodd"
        d="M56.5478 0.00408936L43.2186 27.6625L38.6704 37.0907L56.9325 46.1295L59.8606 40.1294L71.4197 16.2885C73.2671 12.3156 71.7278 7.56049 67.7949 5.61135L56.5478 0.00408936Z"
        fill="#2EC56E" />
    <path fill-rule="evenodd" clip-rule="evenodd"
        d="M29.4073 27.8158C22.5253 29.5946 16.6364 33.9977 12.8901 40.1796L15.7965 46.1294L33.9216 37.166L29.4073 27.8158Z"
        fill="#156738" />
    <path fill-rule="evenodd" clip-rule="evenodd"
        d="M43.1847 27.8158L38.6704 37.166L56.7954 46.1294L59.7019 40.1796C55.9555 33.9977 50.0667 29.5946 43.1847 27.8158Z"
        fill="#156738" />
    <path fill-rule="evenodd" clip-rule="evenodd"
        d="M36.2137 30.5295C11.6476 30.5295 -0.675467 60.4864 16.6972 78.009C21.9686 83.3266 29.0203 86.1611 36.1811 86.1611C39.7307 86.1611 43.302 85.4637 46.7023 84.0315C57.0335 79.7865 63.7689 69.5964 63.7689 58.4003C63.7689 43.0364 51.4459 30.5295 36.2137 30.5295Z"
        fill="#F9A419" />
    <path fill-rule="evenodd" clip-rule="evenodd"
        d="M36.3644 40.0276C19.7855 40.0276 11.5364 60.0936 23.2557 71.8658C27.0183 75.6467 31.6622 77.3414 36.2213 77.3414C45.7648 77.3414 54.9494 69.9166 54.9494 58.6974C54.9494 48.3954 46.623 40.0276 36.3644 40.0276Z"
        fill="white" />
    <path fill-rule="evenodd" clip-rule="evenodd"
        d="M36.3693 46.8119C35.3367 46.8119 34.3075 47.4056 33.8177 48.601L32.6135 51.1301C32.1637 51.9985 31.4127 52.6295 30.4378 52.7875L27.8075 53.1824C25.4024 53.4226 24.4268 56.5834 26.2281 58.3195L28.1073 60.2964C28.7831 60.9281 29.0829 61.9539 28.933 62.901L28.4832 65.6676C28.1861 67.6032 29.623 69.1928 31.2736 69.1928C31.7166 69.1928 32.1705 69.0801 32.6135 68.8277L35.0186 67.5652C35.4331 67.3284 35.8835 67.2084 36.3334 67.2084C36.7838 67.2084 37.2343 67.3284 37.6489 67.5652L40.0532 68.8277C40.5037 69.0835 40.9752 69.2002 41.4291 69.2002C43.0871 69.2002 44.5377 67.6521 44.1842 65.6676L43.7337 62.901C43.5838 61.9539 43.8843 60.9281 44.5594 60.2964L46.4393 58.3195C48.1652 56.5006 47.1897 53.5019 44.8592 53.1824L42.2296 52.7875C41.3293 52.5508 40.5037 51.9985 40.1285 51.0515L38.9243 48.5216C38.4026 47.3866 37.3842 46.8119 36.3693 46.8119Z"
        fill="#F9A419" />
</svg>
