<svg width="215" height="216" viewBox="0 0 215 216" fill="none" xmlns="http://www.w3.org/2000/svg">
    <path
        d="M183.668 31.4285C173.762 21.4289 161.963 13.5002 148.961 8.10447C135.958 2.70877 122.011 -0.0460421 107.932 0.000582066C48.9422 0.000582066 0.864323 48.0605 0.864323 107.028C0.864323 125.928 5.83417 144.288 15.1256 160.488L0 216L56.7211 201.096C72.3869 209.628 89.9975 214.164 107.932 214.164C166.922 214.164 215 166.104 215 107.136C215 78.5164 203.872 51.6244 183.668 31.4285ZM107.932 196.02C91.9422 196.02 76.2764 191.7 62.5553 183.6L59.3141 181.656L25.6055 190.512L34.5729 157.68L32.4121 154.332C23.5263 140.152 18.809 123.76 18.799 107.028C18.799 57.9964 58.7739 18.0365 107.824 18.0365C131.593 18.0365 153.957 27.3245 170.704 44.1725C178.997 52.4222 185.569 62.2359 190.039 73.0443C194.508 83.8528 196.787 95.4409 196.741 107.136C196.957 156.168 156.982 196.02 107.932 196.02ZM156.766 129.492C154.065 128.196 140.884 121.716 138.508 120.744C136.023 119.88 134.294 119.448 132.457 122.04C130.621 124.74 125.543 130.788 124.03 132.516C122.518 134.352 120.897 134.568 118.196 133.164C115.495 131.868 106.852 128.952 96.696 119.88C88.701 112.752 83.407 104.004 81.7864 101.304C80.2739 98.6043 81.5703 97.2003 82.9749 95.7963C84.1633 94.6083 85.6759 92.6643 86.9724 91.1523C88.2688 89.6403 88.809 88.4524 89.6734 86.7244C90.5377 84.8884 90.1055 83.3764 89.4573 82.0804C88.809 80.7844 83.407 67.6084 81.2462 62.2084C79.0854 57.0244 76.8166 57.6724 75.196 57.5644H70.01C68.1734 57.5644 65.3643 58.2124 62.8794 60.9124C60.5025 63.6124 53.5879 70.0924 53.5879 83.2684C53.5879 96.4443 63.2035 109.188 64.5 110.916C65.7965 112.752 83.407 139.752 110.201 151.308C116.575 154.116 121.545 155.736 125.435 156.924C131.809 158.976 137.643 158.652 142.289 158.004C147.475 157.248 158.171 151.524 160.332 145.26C162.6 138.996 162.6 133.704 161.844 132.516C161.088 131.328 159.467 130.788 156.766 129.492Z"
        fill="white" />
</svg>
